<?xml version="1.0" encoding="UTF-8"?>
<svg width="93px" height="40px" viewBox="0 0 93 40" version="1.1" xmlns="http://www.w3.org/2000/svg" xmlns:xlink="http://www.w3.org/1999/xlink">
    <title>logo/app</title>
    <g id="logo/app" stroke="none" stroke-width="1" fill="none" fill-rule="evenodd">
        <path d="M17.5704615,25.9226667 C18.0824615,26.0826667 18.6024615,26.0986667 19.1304615,25.9706667 C19.6584615,25.8426667 20.1624615,25.6266667 20.6424615,25.3226667 C21.1224615,25.0186667 21.5544615,24.6346667 21.9384615,24.1706667 C22.3224615,23.7066667 22.6264615,23.2346667 22.8504615,22.7546667 C23.0104615,22.4346667 23.0904615,22.1706667 23.0904615,21.9626667 C23.0904615,21.7546667 23.0584615,21.6026667 22.9944615,21.5066667 C22.9304615,21.4106667 22.8504615,21.3546667 22.7544615,21.3386667 C22.6584615,21.3226667 22.6104615,21.3306667 22.6104615,21.3626667 C22.5144615,21.6826667 22.3784615,22.0106667 22.2024615,22.3466667 C22.0264615,22.6826667 21.8264615,22.9786667 21.6024615,23.2346667 C21.3784615,23.4906667 21.1464615,23.6906667 20.9064615,23.8346667 C20.6664615,23.9786667 20.4184615,24.0026667 20.1624615,23.9066667 C19.7784615,23.7786667 19.5384615,23.3786667 19.4424615,22.7066667 C19.3464615,22.0346667 19.3944615,20.8986667 19.5864615,19.2986667 C19.6824615,18.4346667 19.7944615,17.6906667 19.9224615,17.0666667 C20.0504615,16.4426667 20.1224615,15.9066667 20.1384615,15.4586667 C20.1544615,15.0106667 20.0904615,14.6586667 19.9464615,14.4026667 C19.8024615,14.1466667 19.5384615,13.9546667 19.1544615,13.8266667 C18.6104615,13.6666667 18.0184615,13.6426667 17.3784615,13.7546667 C16.7384615,13.8666667 16.0984615,14.1066667 15.4584615,14.4746667 C14.8184615,14.8426667 14.2024615,15.3306667 13.6104615,15.9386667 C13.0184615,16.5466667 12.4984615,17.2826667 12.0504615,18.1466667 C12.3064615,16.5466667 12.5864615,14.9466667 12.8904615,13.3466667 C13.1944615,11.7466667 13.4584615,10.4186667 13.6824615,9.36266667 C14.0344615,7.73066667 14.1784615,6.47466667 14.1144615,5.59466667 C14.0504615,4.71466667 13.7464615,4.01866667 13.2024615,3.50666667 C12.8504615,3.18666667 12.4504615,3.01866667 12.0024615,3.00266667 C11.5544615,2.98666667 11.1544615,3.04266667 10.8024615,3.17066667 C10.3544615,3.29866667 9.92246154,3.50666667 9.50646154,3.79466667 C9.60246154,4.69066667 9.65046154,5.55466667 9.65046154,6.38666667 C9.65046154,7.21866667 9.61846154,8.11466667 9.55446154,9.07466667 C9.45846154,10.5786667 9.31446154,12.0826667 9.12246154,13.5866667 C8.93046154,15.0906667 8.73846154,16.5066667 8.54646154,17.8346667 C8.35446154,19.1626667 8.20246154,20.3786667 8.09046154,21.4826667 C7.97846154,22.5866667 7.97046154,23.5066667 8.06646154,24.2426667 C8.09846154,24.6906667 8.23446154,25.0346667 8.47446154,25.2746667 C8.71446154,25.5146667 9.00246154,25.6826667 9.33846154,25.7786667 C9.67446154,25.8746667 10.0424615,25.8906667 10.4424615,25.8266667 C10.8424615,25.7626667 11.2344615,25.6506667 11.6184615,25.4906667 C11.6504615,25.4906667 11.6504615,25.3226667 11.6184615,24.9866667 C11.5864615,24.6506667 11.5704615,24.0666667 11.5704615,23.2346667 C11.7304615,21.9866667 12.0184615,20.8826667 12.4344615,19.9226667 C12.8504615,18.9626667 13.2904615,18.1706667 13.7544615,17.5466667 C14.2184615,16.9226667 14.6744615,16.4746667 15.1224615,16.2026667 C15.5704615,15.9306667 15.9224615,15.8586667 16.1784615,15.9866667 C16.4344615,16.1146667 16.5064615,16.5146667 16.3944615,17.1866667 C16.2824615,17.8586667 16.1144615,18.8666667 15.8904615,20.2106667 C15.6664615,21.8106667 15.6744615,23.0986667 15.9144615,24.0746667 C16.1544615,25.0506667 16.7064615,25.6666667 17.5704615,25.9226667 Z M29.2334615,21.8446667 L29.2595976,22.1173176 C29.372071,23.1920631 29.6276923,23.9805128 30.0264615,24.4826667 C30.4584615,25.0266667 31.0104615,25.3786667 31.6824615,25.5386667 C32.2264615,25.6666667 32.7624615,25.6666667 33.2904615,25.5386667 C33.8184615,25.4106667 34.3144615,25.2026667 34.7784615,24.9146667 C35.2424615,24.6266667 35.6424615,24.2906667 35.9784615,23.9066667 C36.3144615,23.5226667 36.5624615,23.1386667 36.7224615,22.7546667 C36.8504615,22.4346667 36.9144615,22.1706667 36.9144615,21.9626667 C36.9144615,21.7546667 36.8824615,21.6026667 36.8184615,21.5066667 C36.7544615,21.4106667 36.6744615,21.3546667 36.5784615,21.3386667 C36.4824615,21.3226667 36.4344615,21.3306667 36.4344615,21.3626667 C36.3704615,21.6186667 36.2584615,21.8986667 36.0984615,22.2026667 C35.9384615,22.5066667 35.7464615,22.7786667 35.5224615,23.0186667 C35.2984615,23.2586667 35.0504615,23.4586667 34.7784615,23.6186667 C34.5064615,23.7786667 34.2264615,23.8266667 33.9384615,23.7626667 C33.5224615,23.6986667 33.1544615,23.3786667 32.8344615,22.8026667 C32.5144615,22.2266667 32.4344615,21.2666667 32.5944615,19.9226667 C32.6264615,19.7306667 32.4744615,19.5226667 32.1384615,19.2986667 C31.8024615,19.0746667 31.4344615,18.8666667 31.0344615,18.6746667 C30.6344615,18.4826667 30.2584615,18.3466667 29.9064615,18.2666667 C29.5544615,18.1866667 29.3784615,18.2106667 29.3784615,18.3386667 C29.3464615,18.4346667 29.3304615,18.5626667 29.3304615,18.7226667 C29.0104615,20.1946667 28.5944615,21.4026667 28.0824615,22.3466667 C27.5704615,23.2906667 27.0264615,23.7626667 26.4504615,23.7626667 C26.0344615,23.7626667 25.6984615,23.3786667 25.4424615,22.6106667 C25.1864615,21.8426667 25.1864615,20.7386667 25.4424615,19.2986667 C25.7624615,17.6666667 26.2664615,16.3546667 26.9544615,15.3626667 C27.6424615,14.3706667 28.4344615,13.9066667 29.3304615,13.9706667 C29.9704615,14.0026667 30.3464615,14.2906667 30.4584615,14.8346667 C30.5704615,15.3786667 30.4184615,15.8906667 30.0024615,16.3706667 C29.6824615,16.7546667 29.2824615,17.0106667 28.8024615,17.1386667 C28.7064615,17.1706667 28.8424615,17.2906667 29.2104615,17.4986667 C29.5784615,17.7066667 30.0264615,17.8666667 30.5544615,17.9786667 C31.0824615,18.0906667 31.6184615,18.0906667 32.1624615,17.9786667 C32.7064615,17.8666667 33.1224615,17.4906667 33.4104615,16.8506667 C33.5704615,16.4986667 33.6024615,16.1146667 33.5064615,15.6986667 C33.4104615,15.2826667 33.2104615,14.8906667 32.9064615,14.5226667 C32.6024615,14.1546667 32.1944615,13.8426667 31.6824615,13.5866667 C31.1704615,13.3306667 30.5784615,13.1866667 29.9064615,13.1546667 C29.0104615,13.1226667 28.1224615,13.2666667 27.2424615,13.5866667 C26.3624615,13.9066667 25.5624615,14.3786667 24.8424615,15.0026667 C24.1224615,15.6266667 23.4984615,16.3786667 22.9704615,17.2586667 C22.4424615,18.1386667 22.0664615,19.1066667 21.8424615,20.1626667 C21.6504615,21.0266667 21.6104615,21.8026667 21.7224615,22.4906667 C21.8344615,23.1786667 22.0344615,23.7626667 22.3224615,24.2426667 C22.6104615,24.7226667 22.9464615,25.1066667 23.3304615,25.3946667 C23.7144615,25.6826667 24.0984615,25.8426667 24.4824615,25.8746667 C25.4424615,26.0026667 26.3304615,25.6986667 27.1464615,24.9626667 C27.9624615,24.2266667 28.6584615,23.1866667 29.2344615,21.8426667 L29.2334615,21.8446667 Z M36.7944615,36.5066667 C37.2264615,36.5226667 37.6184615,36.4666667 37.9704615,36.3386667 C38.3864615,36.2106667 38.8184615,36.0026667 39.2664615,35.7146667 C39.2024615,34.0826667 39.1544615,32.6986667 39.1224615,31.5626667 C39.0904615,30.4266667 39.1064615,29.3786667 39.1704615,28.4186667 C39.2344615,27.0106667 39.3224615,25.7466667 39.4344615,24.6266667 C39.5464615,23.5066667 39.7144615,22.3866667 39.9384615,21.2666667 C40.1304615,20.5626667 40.3624615,19.8586667 40.6344615,19.1546667 C40.9064615,18.4506667 41.1944615,17.8186667 41.4984615,17.2586667 C41.8024615,16.6986667 42.1064615,16.2506667 42.4104615,15.9146667 C42.7144615,15.5786667 42.9944615,15.4266667 43.2504615,15.4586667 C43.6984615,15.4906667 43.9784615,15.8186667 44.0904615,16.4426667 C44.2024615,17.0666667 44.1784615,18.0986667 44.0184615,19.5386667 C43.9544615,19.8586667 43.8984615,20.1626667 43.8504615,20.4506667 C43.8024615,20.7386667 43.7464615,21.0106667 43.6824615,21.2666667 C42.7544615,21.4266667 42.0024615,21.6826667 41.4264615,22.0346667 C40.9144615,22.3546667 40.5544615,22.6826667 40.3464615,23.0186667 C40.1384615,23.3546667 40.0344615,23.6666667 40.0344615,23.9546667 C40.0344615,24.2426667 40.1144615,24.4906667 40.2744615,24.6986667 C40.4344615,24.9066667 40.6424615,25.0426667 40.8984615,25.1066667 C41.2824615,25.2026667 41.7224615,25.2186667 42.2184615,25.1546667 C42.7144615,25.0906667 43.2264615,24.9386667 43.7544615,24.6986667 C44.2824615,24.4586667 44.7944615,24.1226667 45.2904615,23.6906667 C45.7864615,23.2586667 46.2104615,22.7226667 46.5624615,22.0826667 L46.5624615,22.0826667 L49.4904615,22.5626667 C49.7784615,22.6266667 49.9944615,22.6186667 50.1384615,22.5386667 C50.2824615,22.4586667 50.3784615,22.3546667 50.4264615,22.2266667 C50.4744615,22.0986667 50.4824615,21.9786667 50.4504615,21.8666667 C50.4184615,21.7546667 50.3864615,21.6826667 50.3544615,21.6506667 C49.9384615,21.5866667 49.4344615,21.5066667 48.8424615,21.4106667 C48.2504615,21.3146667 47.6344615,21.2346667 46.9944615,21.1706667 C47.1544615,20.8186667 47.2664615,20.4586667 47.3304615,20.0906667 C47.3944615,19.7226667 47.4584615,19.3146667 47.5224615,18.8666667 C47.6824615,17.0426667 47.5304615,15.7546667 47.0664615,15.0026667 C46.6024615,14.2506667 45.9704615,13.8266667 45.1704615,13.7306667 C44.3384615,13.6346667 43.5704615,13.8266667 42.8664615,14.3066667 C42.1624615,14.7866667 41.5224615,15.4906667 40.9464615,16.4186667 C41.1384615,14.9466667 40.8984615,13.9226667 40.2264615,13.3466667 C39.9064615,13.0586667 39.5384615,12.8986667 39.1224615,12.8666667 C38.7064615,12.8346667 38.2984615,12.8666667 37.8984615,12.9626667 C37.4984615,13.0586667 37.1464615,13.1786667 36.8424615,13.3226667 C36.5384615,13.4666667 36.3544615,13.5546667 36.2904615,13.5866667 C36.3864615,14.4826667 36.4424615,15.3546667 36.4584615,16.2026667 C36.4744615,17.0506667 36.4504615,17.9546667 36.3864615,18.9146667 C36.3224615,19.8426667 36.2344615,20.8186667 36.1224615,21.8426667 C36.0104615,22.8666667 35.8984615,23.8666667 35.7864615,24.8426667 C35.6744615,25.8186667 35.5544615,26.7626667 35.4264615,27.6746667 C35.3624615,28.1306667 35.3024615,28.5646667 35.2464615,28.9766667 L35.0904615,30.1466667 C34.8344615,31.7786667 34.7224615,33.0346667 34.7544615,33.9146667 C34.7864615,34.7946667 35.0744615,35.4906667 35.6184615,36.0026667 C35.9704615,36.3226667 36.3624615,36.4906667 36.7944615,36.5066667 Z M41.4960912,24.4471111 L41.3784615,24.4346667 C41.0264615,24.3706667 40.8744615,24.1386667 40.9224615,23.7386667 C40.9704615,23.3386667 41.2344615,22.9626667 41.7144615,22.6106667 C42.1944615,22.3226667 42.7704615,22.1306667 43.4424615,22.0346667 C43.1544615,22.8666667 42.8264615,23.4906667 42.4584615,23.9066667 C42.0904615,24.3226667 41.7304615,24.4986667 41.3784615,24.4346667 L41.4960912,24.4471111 Z M49.8504615,36.5066667 C50.2824615,36.5226667 50.6744615,36.4666667 51.0264615,36.3386667 C51.4424615,36.2106667 51.8744615,36.0026667 52.3224615,35.7146667 C52.2584615,34.0826667 52.2104615,32.6986667 52.1784615,31.5626667 C52.1464615,30.4266667 52.1624615,29.3786667 52.2264615,28.4186667 C52.2904615,27.0106667 52.3784615,25.7466667 52.4904615,24.6266667 C52.6024615,23.5066667 52.7704615,22.3866667 52.9944615,21.2666667 C53.1864615,20.5626667 53.4184615,19.8586667 53.6904615,19.1546667 C53.9624615,18.4506667 54.2504615,17.8186667 54.5544615,17.2586667 C54.8584615,16.6986667 55.1624615,16.2506667 55.4664615,15.9146667 C55.7704615,15.5786667 56.0504615,15.4266667 56.3064615,15.4586667 C56.7544615,15.4906667 57.0344615,15.8186667 57.1464615,16.4426667 C57.2584615,17.0666667 57.2344615,18.0986667 57.0744615,19.5386667 C57.0104615,19.8586667 56.9544615,20.1626667 56.9064615,20.4506667 C56.8584615,20.7386667 56.8024615,21.0106667 56.7384615,21.2666667 C55.8104615,21.4266667 55.0584615,21.6826667 54.4824615,22.0346667 C53.9704615,22.3546667 53.6104615,22.6826667 53.4024615,23.0186667 C53.1944615,23.3546667 53.0904615,23.6666667 53.0904615,23.9546667 C53.0904615,24.2426667 53.1704615,24.4906667 53.3304615,24.6986667 C53.4904615,24.9066667 53.6984615,25.0426667 53.9544615,25.1066667 C54.3384615,25.2026667 54.7784615,25.2186667 55.2744615,25.1546667 C55.7704615,25.0906667 56.2824615,24.9386667 56.8104615,24.6986667 C57.3384615,24.4586667 57.8504615,24.1226667 58.3464615,23.6906667 C58.8424615,23.2586667 59.2664615,22.7226667 59.6184615,22.0826667 L59.6184615,22.0826667 L62.5464615,22.5626667 C62.8344615,22.6266667 63.0504615,22.6186667 63.1944615,22.5386667 C63.3384615,22.4586667 63.4344615,22.3546667 63.4824615,22.2266667 C63.5304615,22.0986667 63.5384615,21.9786667 63.5064615,21.8666667 C63.4744615,21.7546667 63.4424615,21.6826667 63.4104615,21.6506667 C62.9944615,21.5866667 62.4904615,21.5066667 61.8984615,21.4106667 C61.3064615,21.3146667 60.6904615,21.2346667 60.0504615,21.1706667 C60.2104615,20.8186667 60.3224615,20.4586667 60.3864615,20.0906667 C60.4504615,19.7226667 60.5144615,19.3146667 60.5784615,18.8666667 C60.7384615,17.0426667 60.5864615,15.7546667 60.1224615,15.0026667 C59.6584615,14.2506667 59.0264615,13.8266667 58.2264615,13.7306667 C57.3944615,13.6346667 56.6264615,13.8266667 55.9224615,14.3066667 C55.2184615,14.7866667 54.5784615,15.4906667 54.0024615,16.4186667 C54.1944615,14.9466667 53.9544615,13.9226667 53.2824615,13.3466667 C52.9624615,13.0586667 52.5944615,12.8986667 52.1784615,12.8666667 C51.7624615,12.8346667 51.3544615,12.8666667 50.9544615,12.9626667 C50.5544615,13.0586667 50.2024615,13.1786667 49.8984615,13.3226667 C49.5944615,13.4666667 49.4104615,13.5546667 49.3464615,13.5866667 C49.4424615,14.4826667 49.4984615,15.3546667 49.5144615,16.2026667 C49.5304615,17.0506667 49.5064615,17.9546667 49.4424615,18.9146667 C49.3784615,19.8426667 49.2904615,20.8186667 49.1784615,21.8426667 C49.0664615,22.8666667 48.9544615,23.8666667 48.8424615,24.8426667 C48.7304615,25.8186667 48.6104615,26.7626667 48.4824615,27.6746667 C48.4184615,28.1306667 48.3584615,28.5646667 48.3024615,28.9766667 L48.1464615,30.1466667 C47.8904615,31.7786667 47.7784615,33.0346667 47.8104615,33.9146667 C47.8424615,34.7946667 48.1304615,35.4906667 48.6744615,36.0026667 C49.0264615,36.3226667 49.4184615,36.4906667 49.8504615,36.5066667 Z M54.5520912,24.4471111 L54.4344615,24.4346667 C54.0824615,24.3706667 53.9304615,24.1386667 53.9784615,23.7386667 C54.0264615,23.3386667 54.2904615,22.9626667 54.7704615,22.6106667 C55.2504615,22.3226667 55.8264615,22.1306667 56.4984615,22.0346667 C56.2104615,22.8666667 55.8824615,23.4906667 55.5144615,23.9066667 C55.1464615,24.3226667 54.7864615,24.4986667 54.4344615,24.4346667 L54.5520912,24.4471111 Z M66.9624615,25.8746667 C67.8264615,25.9706667 68.6424615,25.9386667 69.4104615,25.7786667 C70.1784615,25.6186667 70.8824615,25.3786667 71.5224615,25.0586667 C72.1624615,24.7386667 72.7064615,24.3786667 73.1544615,23.9786667 C73.6024615,23.5786667 73.9224615,23.1706667 74.1144615,22.7546667 C74.2424615,22.4346667 74.3064615,22.1706667 74.3064615,21.9626667 C74.3064615,21.7546667 74.2664615,21.6026667 74.1864615,21.5066667 C74.1064615,21.4106667 74.0264615,21.3546667 73.9464615,21.3386667 C73.8664615,21.3226667 73.8264615,21.3306667 73.8264615,21.3626667 C73.5704615,22.0986667 73.0024615,22.6906667 72.1224615,23.1386667 C71.2424615,23.5866667 70.2904615,23.7946667 69.2664615,23.7626667 C68.6264615,23.7306667 67.9224615,23.4906667 67.1544615,23.0426667 C66.3864615,22.5946667 65.8584615,21.9066667 65.5704615,20.9786667 C66.8824615,21.0426667 68.0424615,20.7946667 69.0504615,20.2346667 C70.0584615,19.6746667 70.7544615,19.0266667 71.1384615,18.2906667 C71.6184615,17.3626667 71.8024615,16.4266667 71.6904615,15.4826667 C71.5784615,14.5386667 71.1064615,13.8426667 70.2744615,13.3946667 C69.7304615,13.0746667 69.0104615,12.9546667 68.1144615,13.0346667 C67.2184615,13.1146667 66.3304615,13.4186667 65.4504615,13.9466667 C64.5704615,14.4746667 63.7864615,15.2506667 63.0984615,16.2746667 C62.4104615,17.2986667 62.0024615,18.5946667 61.8744615,20.1626667 C61.7784615,21.0906667 61.8984615,21.8906667 62.2344615,22.5626667 C62.5704615,23.2346667 63.0024615,23.8106667 63.5304615,24.2906667 C64.0584615,24.7706667 64.6344615,25.1386667 65.2584615,25.3946667 C65.8824615,25.6506667 66.4504615,25.8106667 66.9624615,25.8746667 Z M65.4264615,20.1626667 C65.3624615,19.9386667 65.3624615,19.6506667 65.4264615,19.2986667 C65.4904615,18.3706667 65.6664615,17.4826667 65.9544615,16.6346667 C66.2424615,15.7866667 66.6104615,15.0906667 67.0584615,14.5466667 C67.5064615,13.9386667 67.9304615,13.7226667 68.3304615,13.8986667 C68.7304615,14.0746667 68.9304615,14.5946667 68.9304615,15.4586667 C68.9304615,15.9386667 68.8504615,16.4266667 68.6904615,16.9226667 C68.5304615,17.4186667 68.2904615,17.8826667 67.9704615,18.3146667 C67.6504615,18.7466667 67.2744615,19.1306667 66.8424615,19.4666667 C66.4104615,19.8026667 65.9384615,20.0346667 65.4264615,20.1626667 Z M78.0024615,25.8746667 C78.8664615,25.9706667 79.6824615,25.9386667 80.4504615,25.7786667 C81.2184615,25.6186667 81.9224615,25.3786667 82.5624615,25.0586667 C83.2024615,24.7386667 83.7464615,24.3786667 84.1944615,23.9786667 C84.6424615,23.5786667 84.9624615,23.1706667 85.1544615,22.7546667 C85.2824615,22.4346667 85.3464615,22.1706667 85.3464615,21.9626667 C85.3464615,21.7546667 85.3064615,21.6026667 85.2264615,21.5066667 C85.1464615,21.4106667 85.0664615,21.3546667 84.9864615,21.3386667 C84.9064615,21.3226667 84.8664615,21.3306667 84.8664615,21.3626667 C84.6104615,22.0986667 84.0424615,22.6906667 83.1624615,23.1386667 C82.2824615,23.5866667 81.3304615,23.7946667 80.3064615,23.7626667 C79.6664615,23.7306667 78.9624615,23.4906667 78.1944615,23.0426667 C77.4264615,22.5946667 76.8984615,21.9066667 76.6104615,20.9786667 C77.9224615,21.0426667 79.0824615,20.7946667 80.0904615,20.2346667 C81.0984615,19.6746667 81.7944615,19.0266667 82.1784615,18.2906667 C82.6584615,17.3626667 82.8424615,16.4266667 82.7304615,15.4826667 C82.6184615,14.5386667 82.1464615,13.8426667 81.3144615,13.3946667 C80.7704615,13.0746667 80.0504615,12.9546667 79.1544615,13.0346667 C78.2584615,13.1146667 77.3704615,13.4186667 76.4904615,13.9466667 C75.6104615,14.4746667 74.8264615,15.2506667 74.1384615,16.2746667 C73.4504615,17.2986667 73.0424615,18.5946667 72.9144615,20.1626667 C72.8184615,21.0906667 72.9384615,21.8906667 73.2744615,22.5626667 C73.6104615,23.2346667 74.0424615,23.8106667 74.5704615,24.2906667 C75.0984615,24.7706667 75.6744615,25.1386667 76.2984615,25.3946667 C76.9224615,25.6506667 77.4904615,25.8106667 78.0024615,25.8746667 Z M76.4664615,20.1626667 C76.4024615,19.9386667 76.4024615,19.6506667 76.4664615,19.2986667 C76.5304615,18.3706667 76.7064615,17.4826667 76.9944615,16.6346667 C77.2824615,15.7866667 77.6504615,15.0906667 78.0984615,14.5466667 C78.5464615,13.9386667 78.9704615,13.7226667 79.3704615,13.8986667 C79.7704615,14.0746667 79.9704615,14.5946667 79.9704615,15.4586667 C79.9704615,15.9386667 79.8904615,16.4266667 79.7304615,16.9226667 C79.5704615,17.4186667 79.3304615,17.8826667 79.0104615,18.3146667 C78.6904615,18.7466667 78.3144615,19.1306667 77.8824615,19.4666667 C77.4504615,19.8026667 76.9784615,20.0346667 76.4664615,20.1626667 Z" id="happee" fill="#CA02A2" fill-rule="nonzero"></path>
    </g>
</svg>