<?xml version="1.0" encoding="UTF-8"?>
<svg width="48px" height="48px" viewBox="0 0 48 48" version="1.1" xmlns="http://www.w3.org/2000/svg" xmlns:xlink="http://www.w3.org/1999/xlink">
    <title>icon/baby-changer/48</title>
    <g id="icon/baby-changer/48" stroke="none" stroke-width="1" fill="none" fill-rule="evenodd">
        <g id="Rectangle-12" transform="translate(10.000000, 4.000000)" fill="#FFF7E1">
            <rect id="Rectangle-11" x="0" y="0" width="34" height="34" rx="8"></rect>
        </g>
        <g id="IL_Baby_Female" transform="translate(4.000000, 9.000000)">
            <path d="M21.4117647,11.2711864 C19.7647059,10 15.7464237,10 15.6470588,10 L11.5294118,10 C9.33333333,10 7.68627451,10.4237288 6.58823529,11.2711864 C5.49019608,12.1186441 3.50585893,14.2418098 0.635223859,17.6406835 C-0.183924584,18.4702185 -0.224882006,19.8389513 0.594266437,20.7099631 C1.41341488,21.5809749 2.76500981,21.5809749 3.62511568,20.7514398 L8.17138954,17.1844392 L7.84373016,21.5394981 L2.60118012,26.724092 C2.06873363,27.3462433 2.10969106,28.3002085 2.68309497,28.9223598 L7.96660242,34.1899072 C8.94958056,35.226826 10.5878774,35.2683027 11.611813,34.3143375 C12.6357485,33.3188954 12.676706,31.6598254 11.7346853,30.6229066 C11.6937278,30.5814299 11.6527704,30.5399531 11.611813,30.4984764 L9.44106962,28.3416853 L10.9564942,27.221813 L16.9772353,27.221813 L18.4926599,28.3416853 L16.3219165,30.5399531 C15.3389384,31.6183486 15.4208533,33.2774187 16.4857462,34.231384 C17.4687244,35.1438725 18.984149,35.1438725 19.9671271,34.231384 L25.2506346,28.9638366 C25.8240385,28.3416853 25.8649959,27.38772 25.291592,26.7655688 L20.1719142,21.5394981 L19.8442548,17.1844392 L24.3905287,20.7099631 C25.2096771,21.5394981 26.5612721,21.5394981 27.4213779,20.7099631 C28.199569,19.8804281 28.199569,18.5116953 27.3804205,17.6406835 C24.4993559,14.2418098 22.5098039,12.1186441 21.4117647,11.2711864 Z" id="Path" stroke="#030303" stroke-width="0.7" fill="#030303"></path>
            <path d="M8.58096376,28.5905458 L11.0793665,31.1206276 C11.7756427,31.8257324 11.7756427,32.9456047 11.1203239,33.6507094 C10.4650052,34.3558142 9.31819736,34.3558142 8.62192118,33.6921862 C8.62192118,33.6921862 8.62192118,33.6921862 8.58096376,33.6507094 L3.2974563,28.383162 C3.01075434,28.0928248 3.01075434,27.6780573 3.21554145,27.3462433 L7.1884114,23.3644752 L10.4240478,26.6411385 L8.62192118,28.0098713 C8.45809149,28.1343015 8.41713407,28.4246388 8.54000633,28.5905458 C8.54000633,28.5490691 8.54000633,28.5490691 8.58096376,28.5905458 Z" id="Path" fill="#FFFFFF"></path>
            <path d="M19.4346806,33.6092327 C18.7793619,34.3558142 17.6735115,34.397291 16.9362779,33.7336629 C16.1990443,33.0700349 16.1580869,31.9501626 16.8134056,31.2035811 C16.854363,31.1621044 16.8953205,31.1206276 16.9362779,31.0791509 L19.4346806,28.5490691 C19.5985103,28.383162 19.5985103,28.1343015 19.4346806,27.9683945 C19.4346806,27.9683945 19.3937232,27.9269178 19.3937232,27.9269178 L17.5915966,26.558185 L20.827233,23.2815217 L24.8001029,27.2632898 C25.00489,27.5951038 24.9639326,28.051348 24.7181881,28.383162 L19.4346806,33.6092327 Z" id="Path" fill="#FFFFFF"></path>
            <path d="M20.2128716,22.5213419 L16.6495759,26.3508012 L11.3660685,26.3508012 L7.80277274,22.5213419 L8.54000633,21.72904 C8.62192118,21.6410064 8.6628786,21.5529729 8.6628786,21.4649393 L8.82670829,19 L19.1889361,19 L19.3527658,21.4649393 C19.3527658,21.5529729 19.3937232,21.6850232 19.475638,21.72904 L20.2128716,22.5213419 Z" id="Path" fill="#FFC07D"></path>
            <path d="M24.9229752,20.0878118 C24.9229752,20.0878118 24.9093227,20.0739862 24.8820178,20.0463351 L19.5985103,15.9401367 C19.4346806,15.8157065 19.1479787,15.8157065 19.0251064,16.0230902 C18.9431916,16.1060437 18.9431916,16.1889972 18.9431916,16.3134275 L19.1070212,18.5946488 L8.86766571,18.5946488 L9.0314954,16.3134275 C9.0314954,16.064567 8.86766571,15.89866 8.6628786,15.8571832 C8.58096376,15.8571832 8.45809149,15.89866 8.37617665,15.9401367 L3.09266919,20.0878118 L3.05171177,20.1292886 C2.51926528,20.6270096 1.70011684,20.6270096 1.20862777,20.1292886 C0.962883237,19.8804281 0.799053548,19.5486141 0.799053548,19.1753233 C0.799053548,18.8020325 0.962883237,18.4702185 1.20862777,18.221358 C4.72470043,14.2885527 6.79241274,12.1130717 7.41176471,11.6949153 C8.34079266,11.0676805 9.47058824,10.8474576 11.5294118,10.8474576 C13.5882353,10.8474576 14,10.8474576 16.4705882,10.8474576 C18.9411765,10.8474576 19.7647059,11.2532638 20.5882353,11.6949153 C21.1372549,11.9893495 23.1965295,14.1648305 26.7660592,18.221358 C27.2985057,18.719079 27.2985057,19.5900908 26.7660592,20.0878118 C26.2336127,20.6270096 25.4144643,20.6270096 24.9229752,20.0878118 Z" id="Path" fill="#FFFFFF"></path>
            <path d="M18,4.5 C18,2.02702703 15.972973,0 13.5,0 C11.027027,0 9,2.02702703 9,4.5 C9,6.97297297 11.027027,9 13.5,9 C15.972973,9 18,6.97297297 18,4.5 Z" id="Path" stroke="#030303" stroke-width="0.7" fill="#030303"></path>
            <path d="M9.81818182,4.5 C9.81818182,2.47702298 11.477023,0.818181818 13.5,0.818181818 C15.522977,0.818181818 17.1818182,2.47702298 17.1818182,4.5 C17.1818182,6.52297702 15.522977,8.18181818 13.5,8.18181818 C11.477023,8.18181818 9.81818182,6.52297702 9.81818182,4.5 L9.81818182,4.5 Z" id="Path" fill="#FFFFFF"></path>
        </g>
    </g>
</svg>