<?xml version="1.0" encoding="UTF-8"?>
<svg width="48px" height="48px" viewBox="0 0 48 48" version="1.1" xmlns="http://www.w3.org/2000/svg" xmlns:xlink="http://www.w3.org/1999/xlink">
    <title>icon/contactless/48</title>
    <g id="icon/contactless/48" stroke="none" stroke-width="1" fill="none" fill-rule="evenodd">
        <g id="noun_Hand_32554" transform="translate(7.000000, 4.000000)" fill="#FFF7E1">
            <rect id="Rectangle-8" x="0" y="0" width="33.0078587" height="33.0078587" rx="7.76655498"></rect>
        </g>
        <g id="noun_Hand_2386996" transform="translate(4.000000, 24.000000)">
            <path d="M5,4.5 L5,11 C9.80541993,13.3674067 12.8799366,14.8517102 14.2235499,15.4529105 C15.783633,16.1509702 16,16.5 17.5,16.5 C19,16.5 20.6738138,15.5894161 22,15 C25,13.6666667 30.1666667,11.5 37.5,8.5 C38.1666667,7.83333333 38.3333333,7.16666667 38,6.5 C37.6666667,5.83333333 37,5.5 36,5.5 C31.8951977,6.94456511 29.0618644,7.94456511 27.5,8.5 C25.2252561,9.30895122 22.6568414,10.5 22,10.5 C20.6666667,10.5 18.1666667,9.66666667 14.5,8 C14.1666667,8 14.1666667,7.66666667 14.5,7 C14.8333333,6.33333333 15.5,6.33333333 16.5,7 L22,9.5 C23.1245701,9.12628964 23.7912368,8.62628964 24,8 C24.2087632,7.37371036 24.0420965,6.70704369 23.5,6 L15,2.5 C13.2120636,1.79092062 11.3787302,1.62425395 9.5,2 C7.62126977,2.37574605 6.12126977,3.20907938 5,4.5 Z" id="Path-13" fill="#FFC07D"></path>
            <polygon id="Path-2" fill="#FFC07D" points="25 6.5 25.5 8 33.5 5 32 4"></polygon>
            <path d="M37.75,3.9375 C36.90625,3.59375 35.96875,3.59375 35.125,3.96875 L34.75,4.125 C34.375,3.46875 33.78125,2.96875 33.09375,2.6875 C32.25,2.34375 31.3125,2.34375 30.46875,2.71875 L24.5,5.5 C24.03125,5.6875 24.3125,6.03125 24.5,6.5 C24.65625,6.84375 24.625,7 25,7 C25.125,7 27.46875,6 27.59375,5.96875 L31.21875,4.4375 C31.59375,4.28125 32.03125,4.28125 32.40625,4.4375 C32.65625,4.53125 32.84375,4.6875 33,4.875 L25.625,7.96875 C25.65625,7.46875 25.59375,6.96875 25.40625,6.5 C25.0625,5.65625 24.4375,4.96875 23.59375,4.59375 L15.5,1 C12.0625,-0.53125 8.0625,-0.0625 5.0625,2.21875 L3.84375,3.15625 C3.8125,3.1875 3.78125,3.21875 3.75,3.25 L3.4375,3.5625 C3.25,3.75 3.15625,3.96875 3.15625,4.21875 L3.15625,14.21875 L1.25,14.21875 C0.71875,14.21875 0.3125,14.625 0.3125,15.15625 C0.3125,15.6875 0.71875,16.09375 1.25,16.09375 L4.0625,16.09375 C4.59375,16.09375 5,15.6875 5,15.15625 L5,4.59375 L6.1875,3.6875 C8.65625,1.8125 11.90625,1.4375 14.75,2.6875 L22.8125,6.3125 C23.1875,6.46875 23.5,6.78125 23.625,7.1875 C23.78125,7.5625 23.75,8 23.59375,8.375 C23.4375,8.75 23.125,9.03125 22.75,9.1875 C22.375,9.34375 21.9375,9.3125 21.5625,9.15625 L15.3125,6.375 C14.84375,6.15625 14.28125,6.375 14.0625,6.84375 C13.84375,7.3125 14.0625,7.875 14.53125,8.09375 L20.78125,10.875 C21.625,11.25 22.5625,11.28125 23.40625,10.9375 C24.25,10.59375 35.84375,5.65625 35.84375,5.65625 C36.21875,5.5 36.65625,5.5 37.03125,5.65625 C37.40625,5.8125 37.71875,6.125 37.875,6.5 C38.03125,6.875 38.03125,7.3125 37.875,7.6875 C37.71875,8.0625 37.40625,8.375 37.03125,8.53125 L19.4375,16 C18.03125,16.59375 16.40625,16.5625 15.03125,15.875 L5,11 C4.53125,10.78125 4.71875,11.53125 4.5,12 C4.28125,12.46875 4.53125,12.78125 5,13 C5.3125,13.1458333 8.38541667,14.6666667 14.21875,17.5625 C15.21875,18.03125 16.28125,18.28125 17.375,18.28125 C18.3125,18.28125 19.28125,18.09375 20.1875,17.71875 L37.8125,10.28125 C38.65625,9.9375 39.3125,9.25 39.65625,8.40625 C40,7.5625 40,6.625 39.625,5.78125 C39.25,4.9375 38.59375,4.28125 37.75,3.9375 Z" id="Path" fill="#000000" fill-rule="nonzero"></path>
        </g>
        <g id="Group" transform="translate(23.650643, 12.752600) rotate(-180.000000) translate(-23.650643, -12.752600) translate(11.650643, 3.252600)" fill="#000000" fill-rule="nonzero" stroke="#000000" stroke-width="0.5">
            <path d="M23.8464828,6.40758621 C21.1655172,2.56510345 16.7511724,0.271034483 12.038069,0.271034483 C7.26868966,0.271034483 2.82455172,2.60813793 0.150206897,6.52262069 C-0.0434482759,6.80565517 0.0293793103,7.19172414 0.312827586,7.38537931 C0.42,7.45862069 0.541655172,7.49337931 0.662482759,7.49337931 C0.860689655,7.49337931 1.05517241,7.39862069 1.17517241,7.22317241 C3.6177931,3.64717241 7.67917241,1.51241379 12.038069,1.51241379 C16.3456552,1.51241379 20.3793103,3.60786207 22.8281379,7.11806897 C23.0251034,7.39986207 23.4115862,7.46813793 23.6925517,7.272 C23.973931,7.07627586 24.0426207,6.68896552 23.8464828,6.40758621 Z" id="Shape"></path>
            <path d="M12.0227586,8.48068966 C9.09103448,8.48068966 6.35917241,9.91737931 4.71558621,12.3235862 C4.52193103,12.6066207 4.59475862,12.9926897 4.8782069,13.1863448 C4.98537931,13.2595862 5.10703448,13.2943448 5.22786207,13.2943448 C5.42606897,13.2943448 5.62055172,13.1995862 5.74055172,13.0241379 C7.15282759,10.9564138 9.50151724,9.72248276 12.0231724,9.72248276 C14.5146207,9.72248276 16.8471724,10.934069 18.2631724,12.9637241 C18.4601379,13.2451034 18.8466207,13.3133793 19.1275862,13.1176552 C19.4089655,12.9211034 19.4776552,12.5346207 19.2815172,12.2532414 C17.6325517,9.89089655 14.9193103,8.48068966 12.0227586,8.48068966 Z" id="Shape"></path>
            <path d="M12.0070345,16.3762759 C10.9291034,16.3762759 9.92358621,16.9055172 9.31737931,17.7922759 C9.12372414,18.0757241 9.19655172,18.4613793 9.47958621,18.6550345 C9.58675862,18.7286897 9.70882759,18.7634483 9.82965517,18.7634483 C10.0278621,18.7634483 10.2223448,18.6686897 10.3423448,18.4932414 C10.7168276,17.9453793 11.3391724,17.6184828 12.0070345,17.6184828 C12.6682759,17.6184828 13.2864828,17.9391724 13.6613793,18.4766897 C13.857931,18.7584828 14.2448276,18.8267586 14.5257931,18.6310345 C14.8067586,18.4344828 14.8758621,18.048 14.6797241,17.7670345 C14.0726897,16.896 13.0733793,16.3762759 12.0070345,16.3762759 Z" id="Shape"></path>
        </g>
    </g>
</svg>