<?xml version="1.0" encoding="UTF-8"?>
<svg width="48px" height="48px" viewBox="0 0 48 48" version="1.1" xmlns="http://www.w3.org/2000/svg" xmlns:xlink="http://www.w3.org/1999/xlink">
    <title>icon/female-products/48</title>
    <g id="icon/female-products/48" stroke="none" stroke-width="1" fill="none" fill-rule="evenodd">
        <g id="Group-2" transform="translate(1.000000, 3.000000)">
            <rect id="Rectangle-8" fill="#FFF7E1" x="6.34920635" y="3.80952381" width="35.8349206" height="35.8349206" rx="8.43174603"></rect>
            <g id="noun_pad_2119913" transform="translate(17.510480, 20.230576) rotate(-330.000000) translate(-17.510480, -20.230576) translate(7.510480, 3.230576)" fill-rule="nonzero">
                <path d="M2.00460924,21.1114301 L2.98053979,21.2876277 C2.75001241,21.9268858 2.47666065,22.5130427 2.15409221,23.0127902 C1.43778995,24.1224211 1.05925479,25.4125865 1.05925479,26.7836393 C1.05925475,30.238402 3.55057762,33.0488889 6.61301117,33.0488889 L12.5665808,33.0488889 C15.6290144,33.0488889 18.1203372,30.238402 18.1203372,26.7836393 C18.1203372,25.4454659 17.736259,24.1470303 17.0097647,23.0287256 C16.6854305,22.5294824 16.4105589,21.9433255 16.1786682,21.3036892 L17.2436448,21.1114301 C18.4051773,20.9016471 19.248254,19.7863682 19.248254,18.4594908 L19.248254,14.5893981 C19.248254,13.2625207 18.4051773,12.1472418 17.2436447,11.9374588 L16.1786011,11.7452502 C16.4105142,11.1055633 16.6853858,10.5193813 17.0097647,10.0201633 C17.736259,8.90185864 18.1203372,7.60342294 18.1203372,6.26524956 C18.1203372,2.81048689 15.6290143,0 12.5665808,0 L6.61301117,0 C3.55057762,0 1.05925479,2.81048689 1.05925479,6.30498729 C1.05925479,7.63610069 1.43778995,8.92646775 2.15409221,10.0363005 C2.47666069,10.5359723 2.74999007,11.1221039 2.98051745,11.7613369 L2.00460928,11.9374588 C0.843076673,12.1472418 0,13.2625207 0,14.5893981 L0,18.4594908 C0,19.7863682 0.843076673,20.9016471 2.00460924,21.1114301 Z" id="Path" stroke="#030303" stroke-width="1.58730159" fill="#030303"></path>
                <path d="M17.1277776,12.7531919 C17.932053,12.8984262 18.515859,13.6707907 18.515859,14.5893981 L18.515859,18.4594908 C18.515859,19.3780982 17.932053,20.1504627 17.1277776,20.2956971 L15.9252534,20.5127922 C15.5871511,19.3094145 15.3992469,17.9490525 15.3992469,16.5244444 C15.3992469,15.0998112 15.5871287,13.7394744 15.9251864,12.5361471 L17.1277776,12.7531919 Z" id="Path" fill="#FFFFFF"></path>
                <path d="M1.79164967,6.26524956 C1.79164967,3.26615972 3.95450342,0.826222222 6.61301117,0.826222222 L12.5665808,0.826222222 C15.2250885,0.826222222 17.3879423,3.26615972 17.3879423,6.26524956 C17.3879423,7.42651943 17.0528573,8.5559184 16.4189852,9.531611 C15.3055518,11.2455783 14.666852,13.7942399 14.666852,16.5244444 C14.666852,19.2544473 15.3055518,21.8031088 16.4189852,23.5172779 C17.0528573,24.4929705 17.3879423,25.6223695 17.3879423,26.7836393 C17.3879423,29.7827292 15.2250885,32.2226667 12.5665808,32.2226667 L6.61301117,32.2226667 C3.95450345,32.2226667 1.79164967,29.7827292 1.79164967,26.7436999 C1.79164967,25.5884815 2.12172809,24.4665459 2.74630217,23.4991236 C3.8522256,21.7855597 4.4866341,19.243353 4.4866341,16.5244444 C4.4866341,13.8055359 3.8522256,11.2633292 2.74630213,9.54996701 C2.12172805,8.58234297 1.79164967,7.46020575 1.79164967,6.26524956 Z" id="Path" fill="#FFFFFF"></path>
                <path d="M9.44253968,22.1536508 C10.8443723,22.1536508 11.9847619,20.8424134 11.9847619,19.2305649 L11.9847619,13.4551494 C11.9847619,11.8433008 10.8443723,10.5320635 9.44253968,10.5320635 C8.04070706,10.5320635 6.90031746,11.8433008 6.90031746,13.4551494 L6.90031746,19.230565 C6.90031746,20.8424134 8.04070706,22.1536508 9.44253968,22.1536508 Z" id="Path" fill="#000000"></path>
                <path d="M7.62880089,13.4551494 C7.62880089,12.3052605 8.44247562,11.3696848 9.44253968,11.3696848 C10.4426037,11.3696848 11.2562785,12.3052605 11.2562785,13.4551494 L11.2562785,19.230565 C11.2562785,20.3804539 10.4426037,21.3160295 9.44253968,21.3160295 C8.44247562,21.3160295 7.62880089,20.3804539 7.62880089,19.230565 L7.62880089,13.4551494 Z" id="Path" fill="#B5EDEA"></path>
                <path d="M0.732394919,14.5893981 C0.732394919,13.6707907 1.31620093,12.8984262 2.12047639,12.7531919 L3.23268047,12.5524608 C3.56794428,13.7521824 3.75423918,15.1069217 3.75423918,16.5244444 C3.75423918,17.9419672 3.5679219,19.2967317 3.23268047,20.4964785 L2.12047639,20.2956971 C1.31620093,20.1504627 0.732394919,19.3780982 0.732394919,18.4594908 L0.732394919,14.5893981 Z" id="Path" fill="#FFFFFF"></path>
            </g>
            <g id="Group" transform="translate(30.476190, 21.904762)" stroke="#030303">
                <path d="M0,1.58730159 C0,0.529100529 0.529100529,0 1.58730159,0 C2.64550265,0 3.17460317,0.529100529 3.17460317,1.58730159 L3.17460317,10.984127 C3.17460317,11.0542584 3.11775044,11.1111111 3.04761905,11.1111111 L0.126984127,11.1111111 C0.0568527302,11.1111111 8.58861906e-18,11.0542584 0,10.984127 L0,1.58730159 L0,1.58730159 Z" id="Rectangle" stroke-width="1.26984127" fill="#FFFFFF"></path>
                <path d="M1.58730159,11.4285714 L1.58730159,14.6031746 C1.58730159,15.2380952 1.9047619,15.5555556 2.53968254,15.5555556 C3.17460317,15.5555556 3.7037037,15.5555556 4.12698413,15.5555556" id="Path-12" stroke-width="0.634920635" stroke-linecap="round"></path>
            </g>
            <g id="Group-Copy" transform="translate(36.190476, 15.873016)" stroke="#030303">
                <path d="M0,1.58730159 C0,0.529100529 0.529100529,0 1.58730159,0 C2.64550265,0 3.17460317,0.529100529 3.17460317,1.58730159 L3.17460317,10.984127 C3.17460317,11.0542584 3.11775044,11.1111111 3.04761905,11.1111111 L0.126984127,11.1111111 C0.0568527302,11.1111111 8.58861906e-18,11.0542584 0,10.984127 L0,1.58730159 L0,1.58730159 Z" id="Rectangle" stroke-width="1.26984127" fill="#FFFFFF"></path>
                <path d="M1.58730159,11.4285714 L1.58730159,14.6031746 C1.58730159,15.2380952 1.9047619,15.5555556 2.53968254,15.5555556 C3.17460317,15.5555556 3.7037037,15.5555556 4.12698413,15.5555556" id="Path-12" stroke-width="0.634920635" stroke-linecap="round"></path>
            </g>
            <path d="" id="Path-11" stroke="#979797" stroke-width="0.634920635"></path>
        </g>
    </g>
</svg>