<?xml version="1.0" encoding="UTF-8"?>
<svg width="48px" height="48px" viewBox="0 0 48 48" version="1.1" xmlns="http://www.w3.org/2000/svg" xmlns:xlink="http://www.w3.org/1999/xlink">
    <title>icon/payment/free/48</title>
    <g id="icon/payment/free/48" stroke="none" stroke-width="1" fill="none" fill-rule="evenodd">
        <g id="Group-2" transform="translate(4.000000, 4.000000)">
            <g id="IL_Paid">
                <rect id="Rectangle-13" fill="#B5EDEA" x="5.94626866" y="0" width="33.6955224" height="33.6955224" rx="7.92835821"></rect>
                <path d="M31.0185203,22.4257806 C31.1787824,21.8918519 31.2615613,21.3428278 31.2615613,20.78388 L31.2615613,16.3923862 C31.2615613,14.0523248 29.8263097,11.8833443 27.2201692,10.2850524 C24.7423778,8.76531243 21.4653663,7.92835821 17.9925562,7.92835821 C14.5198856,7.92835821 11.242874,8.76531243 8.7650826,10.2850524 C6.2629035,11.8196083 4.83322621,13.8802656 4.72369056,16.1132617 L4.72369056,16.9354001 C4.49096211,17.0597971 4.26185696,17.1875486 4.04139208,17.3228478 C1.53921295,18.8574037 0.109535661,20.9182007 0,23.1511968 L0,27.8216753 C0,30.1617367 1.43525162,32.3307173 4.04139208,33.9291489 C5.30620843,34.704883 6.78020167,35.3015693 8.3814291,35.7008976 C8.9043016,36.1997436 9.51413375,36.6660227 10.207999,37.0916282 C12.685651,38.6112284 15.9628019,39.4481827 19.4354725,39.4481827 C22.9082826,39.4481827 26.1852941,38.6112284 28.6630855,37.0916282 C31.2690866,35.4931966 32.7044776,33.324216 32.7044776,30.9841546 L32.7044776,26.5926609 C32.7044776,25.0993378 32.1190332,23.6760404 31.0185203,22.4257806 L31.0185203,22.4257806 L31.0185203,22.4257806 Z" id="Path" stroke="#FFC07D" stroke-width="0.5" fill="#030303"></path>
                <path d="M27.7905629,31.2691496 C26.6922798,31.9428502 25.410183,32.4660165 24.0114433,32.8232735 C25.6528059,31.3903318 26.5378707,29.6588374 26.5378707,27.8216753 L26.5378707,27.2786615 C26.7705992,27.1544042 26.9997043,27.0265129 27.2201692,26.8912137 C28.5221942,26.0926968 29.5319848,25.1516125 30.216513,24.1181389 C30.7509523,24.9008616 31.0321774,25.7378159 31.0321774,26.5926609 C31.0321774,28.3263917 29.8809381,29.9871616 27.7905629,31.2691496 L27.7905629,31.2691496 L27.7905629,31.2691496 Z" id="Path" fill="#FFC07D"></path>
                <path d="M31.0321774,30.9841546 C31.0321774,32.3602091 30.3045875,33.68944 28.9601975,34.8207539 L28.9601975,32.5114424 C29.7792065,31.976675 30.472793,31.3830637 31.0321774,30.7443061 L31.0321774,30.9841546 L31.0321774,30.9841546 Z" id="Path" fill="#FFC07D"></path>
                <path d="M28.4027641,35.2526491 C28.2079412,35.3921415 28.0054535,35.5288384 27.7905629,35.6606433 C27.1899284,36.0289423 26.5329932,36.350837 25.8335536,36.6268866 L25.8335536,34.0216779 C26.7533188,33.7014604 27.6153895,33.3102388 28.4027641,32.8522063 L28.4027641,35.2526491 L28.4027641,35.2526491 Z" id="Path" fill="#FFC07D"></path>
                <path d="M25.2761203,36.8333297 C24.4661696,37.1149701 23.6050743,37.3359495 22.7067704,37.4922145 L22.7067704,34.8006267 C23.5961554,34.6590378 24.455857,34.4587446 25.2761203,34.2047791 L25.2761203,36.8333297 L25.2761203,36.8333297 Z" id="Path" fill="#FFC07D"></path>
                <path d="M22.2361573,32.0901698 C22.0413343,32.2296622 21.8388466,32.3663591 21.623956,32.498164 C21.0233216,32.8666028 20.3663863,33.1884975 19.6669468,33.4644072 L19.6669468,30.8591986 C20.5867119,30.5389811 21.4487826,30.1477595 22.2361573,29.6897269 L22.2361573,32.0901698 L22.2361573,32.0901698 Z" id="Path" fill="#FFC07D"></path>
                <path d="M22.149337,37.5802708 C21.3168103,37.6983781 20.4568299,37.7623936 19.5802659,37.7686833 L19.5802659,35.280883 C19.8028212,35.2048471 20.0217531,35.1243385 20.2373405,35.040056 C20.8847994,35.0157357 21.5232,34.9623428 22.149337,34.880716 L22.149337,37.5802708 L22.149337,37.5802708 Z" id="Path" fill="#FFC07D"></path>
                <path d="M18.1373496,27.5684086 L18.1373496,24.8541778 C19.0100115,24.8483074 19.8694345,24.7894634 20.70656,24.6803016 L20.70656,27.3799961 C19.8738939,27.4981034 19.0139136,27.5621189 18.1373496,27.5684086 L18.1373496,27.5684086 L18.1373496,27.5684086 Z" id="Path" fill="#FFC07D"></path>
                <path d="M13.2688657,30.2169466 C10.0998569,30.2169466 7.13249957,29.4674896 4.91377534,28.1066703 C2.82340012,26.8246823 1.67230017,25.1639124 1.67230017,23.4301816 C1.67230017,21.7506823 2.75553259,20.1405098 4.72369056,18.8758536 L4.72369056,20.78388 C4.72369056,23.1238015 6.15894218,25.2927821 8.7650826,26.8912137 C11.242874,28.4109537 14.5198856,29.2479079 17.9925562,29.2479079 C18.4391998,29.2479079 18.8823593,29.2335114 19.3211987,29.2061161 C17.5155326,29.8650009 15.4396507,30.2169466 13.2688657,30.2169466 L13.2688657,30.2169466 L13.2688657,30.2169466 Z" id="Path" fill="#FFC07D"></path>
                <path d="M19.1095134,33.6708504 C18.2995627,33.9526306 17.4384674,34.1736099 16.5401635,34.3298749 L16.5401635,31.6381474 C17.4295485,31.4965585 18.2892502,31.2962653 19.1095134,31.0422998 L19.1095134,33.6708504 L19.1095134,33.6708504 Z" id="Path" fill="#FFC07D"></path>
                <path d="M19.0228325,37.7647697 C18.1448749,37.7465994 17.2846158,37.6715418 16.453622,37.5409949 L16.453622,36.044457 C17.3424495,35.9069214 18.2018725,35.7101226 19.0228325,35.4607695 L19.0228325,37.7647697 L19.0228325,37.7647697 Z" id="Path" fill="#FFC07D"></path>
                <path d="M15.9827301,34.4177915 C15.1502034,34.5360385 14.290223,34.5999143 13.413659,34.6063438 L13.413659,31.892113 C14.286321,31.8862426 15.1456046,31.8273986 15.9827301,31.7182367 L15.9827301,34.4177915 L15.9827301,34.4177915 Z" id="Path" fill="#FFC07D"></path>
                <path d="M15.8961886,37.4442727 C14.995655,37.2733317 14.1338629,37.0372569 13.3269781,36.7389836 L13.3269781,36.2848647 C14.199222,36.2824886 15.058645,36.2271389 15.8961886,36.1216111 L15.8961886,37.4442727 L15.8961886,37.4442727 Z" id="Path" fill="#FFC07D"></path>
                <path d="M12.8562256,34.6022904 C11.978268,34.5842598 11.118009,34.5090625 10.2870151,34.3785156 L10.2870151,31.6810574 C11.1230259,31.8015408 11.9824488,31.871287 12.8562256,31.8880596 L12.8562256,34.6022904 L12.8562256,34.6022904 Z" id="Path" fill="#FFC07D"></path>
                <path d="M9.72958173,34.2817934 C8.82904809,34.1108523 7.96725607,33.8749174 7.16037124,33.5766441 L7.16037124,30.9592752 C7.97798667,31.227218 8.8390819,31.4379941 9.72958173,31.592442 L9.72958173,34.2817934 L9.72958173,34.2817934 Z" id="Path" fill="#FFC07D"></path>
                <path d="M6.60293784,33.3559442 C6.00341825,33.1047741 5.43720527,32.8190803 4.91377534,32.498164 C4.59784994,32.3043004 4.30603359,32.1009322 4.03372735,31.8908551 L4.03372735,29.5327631 C4.03623582,29.5344404 4.03874426,29.5359779 4.04139208,29.5376551 C4.82207754,30.0165137 5.68233663,30.4271636 6.60293784,30.7655514 L6.60293784,33.3559442 L6.60293784,33.3559442 Z" id="Path" fill="#FFC07D"></path>
                <path d="M3.47629396,31.4235975 C2.30331476,30.3449777 1.67230017,29.1035235 1.67230017,27.8216753 L1.67230017,27.5818267 C2.16953074,28.14972 2.77295241,28.6816919 3.47629396,29.1685175 L3.47629396,31.4235975 L3.47629396,31.4235975 Z" id="Path" fill="#FFC07D"></path>
                <path d="M6.3959907,20.5440313 C6.8932213,21.1117849 7.49678228,21.6438965 8.19998451,22.1307221 L8.19998451,24.3856624 C7.02700532,23.3071823 6.3959907,22.0655884 6.3959907,20.78388 L6.3959907,20.5440313 L6.3959907,20.5440313 Z" id="Path" fill="#FFC07D"></path>
                <path d="M11.3266284,23.727756 L11.3266284,26.3181488 C10.7272482,26.0669787 10.1608958,25.7812849 9.63760522,25.4602289 C9.3215405,25.266505 9.02986347,25.0631368 8.75741791,24.8530597 L8.75741791,22.4949677 C8.76006574,22.4965052 8.76243481,22.4981825 8.7650826,22.49972 C9.54576806,22.9785785 10.4061665,23.3892284 11.3266284,23.727756 L11.3266284,23.727756 L11.3266284,23.727756 Z" id="Path" fill="#FFC07D"></path>
                <path d="M14.4532723,24.5545068 L14.4532723,27.243998 C13.552878,27.073057 12.6909466,26.8369822 11.8840618,26.5387089 L11.8840618,23.9213401 C12.7018166,24.1892829 13.5627725,24.4001986 14.4532723,24.5545068 L14.4532723,24.5545068 L14.4532723,24.5545068 Z" id="Path" fill="#FFC07D"></path>
                <path d="M17.5799162,24.8501244 L17.5799162,27.564495 C16.7020979,27.5463247 15.8416995,27.4712672 15.0107057,27.3405804 L15.0107057,24.643262 C15.8467164,24.7637454 16.7061393,24.8333518 17.5799162,24.8501244 L17.5799162,24.8501244 L17.5799162,24.8501244 Z" id="Path" fill="#FFC07D"></path>
                <path d="M24.3906373,26.4266119 L24.3906373,23.8212634 C25.3104024,23.501046 26.1724732,23.1098243 26.9598478,22.6519316 L26.9598478,25.0522346 C26.7650248,25.191727 26.5626765,25.3284239 26.3476466,25.4602289 C25.7471515,25.8286676 25.0900769,26.1505623 24.3906373,26.4266119 L24.3906373,26.4266119 L24.3906373,26.4266119 Z" id="Path" fill="#FFC07D"></path>
                <path d="M21.2639934,27.2919398 L21.2639934,24.6002123 C22.1533784,24.4587631 23.0130801,24.2584699 23.8332039,24.0045044 L23.8332039,26.633055 C23.0232532,26.9146954 22.1622974,27.1356748 21.2639934,27.2919398 L21.2639934,27.2919398 L21.2639934,27.2919398 Z" id="Path" fill="#FFC07D"></path>
                <path d="M22.7935907,29.348963 C23.3012731,29.017424 23.760877,28.663242 24.1701724,28.2897715 C24.4029009,28.2123378 24.6308911,28.1293133 24.8563729,28.0429343 C24.7829311,29.3398778 24.0656537,30.5877615 22.7935907,31.6582746 L22.7935907,29.348963 L22.7935907,29.348963 Z" id="Path" fill="#FFC07D"></path>
                <path d="M29.5892611,20.5440313 L29.5892611,20.78388 C29.5892611,22.1597947 28.8616712,23.4891653 27.5172812,24.6203394 L27.5172812,22.3110279 C28.3362902,21.7762605 29.0298767,21.1826492 29.5892611,20.5440313 L29.5892611,20.5440313 L29.5892611,20.5440313 Z" id="Path" fill="#FFC07D"></path>
                <path d="M9.63760522,11.7158975 C11.8563295,10.3550782 14.8235474,9.60562116 17.9925562,9.60562116 C21.1617044,9.60562116 24.1290617,10.3550782 26.3476466,11.7158975 C28.4380218,12.9978855 29.5892611,14.6587952 29.5892611,16.3923862 C29.5892611,18.1259772 28.4380218,19.7868869 26.3476466,21.0688749 C24.1290617,22.4296942 21.1617044,23.1791512 17.9925562,23.1791512 C14.8235474,23.1791512 11.8563295,22.4296942 9.63760522,21.0688749 C7.54723003,19.7868869 6.3959907,18.1259772 6.3959907,16.3923862 C6.3959907,14.6587952 7.54723003,12.9978855 9.63760522,11.7158975 L9.63760522,11.7158975 L9.63760522,11.7158975 Z" id="Path" fill="#FFC07D"></path>
            </g>
            <g id="Group" transform="translate(21.802985, 4.955224)">
                <circle id="Oval-3" fill="#0EB7BF" cx="6.24358209" cy="6.24358227" r="6.24358209"></circle>
                <path d="M6.34268666,1.06051155e-15 C7.21811394,1.06051155e-15 8.04191168,0.16517248 8.81410461,0.495522395 C9.58629754,0.825872311 10.2593754,1.27803198 10.8333584,1.85201495 C11.4073413,2.42599793 11.859501,3.09907579 12.1898509,3.87126871 C12.5202008,4.64346164 12.6853733,5.46725939 12.6853733,6.34268666 C12.6853733,7.21811394 12.5202008,8.04191168 12.1898509,8.81410461 C11.859501,9.58629754 11.4073413,10.2593754 10.8333584,10.8333584 C10.2593754,11.4073413 9.58629754,11.859501 8.81410461,12.1898509 C8.04191168,12.5202008 7.21811394,12.6853733 6.34268666,12.6853733 C5.46725939,12.6853733 4.64346164,12.5202008 3.87126871,12.1898509 C3.09907579,11.859501 2.42599793,11.4073413 1.85201495,10.8333584 C1.27803198,10.2593754 0.825872311,9.58629754 0.495522395,8.81410461 C0.16517248,8.04191168 1.06051155e-15,7.21811394 1.06051155e-15,6.34268666 C1.06051155e-15,5.46725939 0.16517248,4.64346164 0.495522395,3.87126871 C0.825872311,3.09907579 1.27803198,2.42599793 1.85201495,1.85201495 C2.42599793,1.27803198 3.09907579,0.825872311 3.87126871,0.495522395 C4.64346164,0.16517248 5.46725939,1.06051155e-15 6.34268666,1.06051155e-15 Z M6.34268666,11.9049256 C7.11075021,11.9049256 7.83131516,11.758335 8.50440311,11.4651494 C9.17749106,11.1719639 9.76385337,10.7734853 10.2635076,10.2697016 C10.7631619,9.76591802 11.1595758,9.17749106 11.4527614,8.50440311 C11.7459469,7.83131516 11.8925375,7.11075021 11.8925375,6.34268666 C11.8925375,5.57462311 11.7459469,4.85405816 11.4527614,4.18097021 C11.1595758,3.50788226 10.7631619,2.92151995 10.2635076,2.42186571 C9.76385337,1.92221146 9.17749106,1.52579751 8.50440311,1.23261196 C7.83131516,0.939426409 7.11075021,0.792835833 6.34268666,0.792835833 C5.57462311,0.792835833 4.85405816,0.939426409 4.18097021,1.23261196 C3.50788226,1.52579751 2.92151995,1.92221146 2.42186571,2.42186571 C1.92221146,2.92151995 1.52579751,3.50788226 1.23261196,4.18097021 C0.939426409,4.85405816 0.792835833,5.57462311 0.792835833,6.34268666 C0.792835833,7.11075021 0.939426409,7.83131516 1.23261196,8.50440311 C1.52579751,9.17749106 1.92221146,9.76591802 2.42186571,10.2697016 C2.92151995,10.7734853 3.50788226,11.1719639 4.18097021,11.4651494 C4.85405816,11.758335 5.57462311,11.9049256 6.34268666,11.9049256 Z M8.5849255,4.10044782 C8.65925423,4.17477655 8.69641804,4.26768607 8.69641804,4.37917917 C8.69641804,4.49067227 8.65925423,4.58358179 8.5849255,4.65791052 L6.90014936,6.34268666 L8.5849255,8.02746281 C8.65925423,8.10179154 8.69641804,8.19470106 8.69641804,8.30619415 C8.69641804,8.41768725 8.65925423,8.51059677 8.5849255,8.5849255 C8.51059677,8.65925423 8.41768725,8.69641804 8.30619415,8.69641804 C8.19470106,8.69641804 8.10179154,8.65925423 8.02746281,8.5849255 L6.34268666,6.90014936 L4.65791052,8.5849255 C4.58358179,8.65925423 4.49067227,8.69641804 4.37917917,8.69641804 C4.26768607,8.69641804 4.17477655,8.65925423 4.10044782,8.5849255 C4.02611909,8.51059677 3.98895528,8.41768725 3.98895528,8.30619415 C3.98895528,8.19470106 4.02611909,8.10179154 4.10044782,8.02746281 L5.78522397,6.34268666 L4.10044782,4.65791052 C4.02611909,4.58358179 3.98895528,4.49067227 3.98895528,4.37917917 C3.98895528,4.26768607 4.02611909,4.17477655 4.10044782,4.10044782 C4.17477655,4.02611909 4.26768607,3.98895528 4.37917917,3.98895528 C4.49067227,3.98895528 4.58358179,4.02611909 4.65791052,4.10044782 L6.34268666,5.78522397 L8.02746281,4.10044782 C8.10179154,4.02611909 8.19470106,3.98895528 8.30619415,3.98895528 C8.41768725,3.98895528 8.51059677,4.02611909 8.5849255,4.10044782 Z" id="Close---simple-line-icons" fill="#030303"></path>
            </g>
        </g>
    </g>
</svg>