<?xml version="1.0" encoding="UTF-8"?>
<svg width="48px" height="48px" viewBox="0 0 48 48" version="1.1" xmlns="http://www.w3.org/2000/svg" xmlns:xlink="http://www.w3.org/1999/xlink">
    <title>icon/hair-dryer/48</title>
    <g id="icon/hair-dryer/48" stroke="none" stroke-width="1" fill="none" fill-rule="evenodd">
        <g id="Group-5" transform="translate(4.000000, 4.000000)">
            <rect id="Rectangle-8" fill="#FFF7E1" x="5.45454545" y="1.72252784e-14" width="34.2060606" height="34.2060606" rx="8.04848485"></rect>
            <g id="Group-3" transform="translate(0.000000, 7.878788)">
                <g id="Group-4" transform="translate(36.833333, 7.409091) rotate(-90.000000) translate(-36.833333, -7.409091) translate(33.333333, 3.909091)" stroke="#B5EDEA" stroke-linecap="round" stroke-width="1.51515152">
                    <line x1="0.303030303" y1="0.303030303" x2="0.303030303" y2="3.33333333" id="Line"></line>
                    <line x1="3.33333333" y1="0.303030303" x2="3.33333333" y2="5.15151515" id="Line-Copy"></line>
                    <line x1="6.06060606" y1="0.303030303" x2="6.06060606" y2="6.66666667" id="Line-Copy-2"></line>
                </g>
                <g id="Group-2">
                    <g id="Group">
                        <path d="M8.33333333,0.833333333 C6.26226552,0.833333333 4.38726552,1.67279943 3.03003247,3.03003247 C1.67279943,4.38726552 0.833333333,6.26226552 0.833333333,8.33333333 C0.833333333,10.6192607 1.85605708,12.6662853 3.46877564,14.041963 L5.24576326,28.2046939 C5.31365221,28.5090239 5.49552738,28.7598094 5.73718811,28.9209165 C5.98561839,29.0865367 6.29723064,29.157384 6.61314049,29.094202 L7.83656989,28.8495161 C8.61090542,28.694649 9.27676295,28.2772686 9.74903659,27.7011873 C10.2213102,27.1251061 10.5,26.3903241 10.5,25.6006537 L10.5006655,15.515656 C12.1824512,15.0088887 13.6148706,13.9272925 14.5705873,12.4998528 L17.8779925,12.5 C19.2083511,12.5 20.5322551,12.3145807 21.8114624,11.9490929 L23.0405006,11.5979391 C23.7732789,11.3885739 24.5357013,11.302161 25.2967488,11.3422162 L27.5991072,11.4633929 C28.0743942,11.488408 28.5197218,11.3294702 28.8625964,11.0464236 C29.205471,10.7633771 29.4458926,10.3562219 29.5113675,9.88480223 L30.2767851,4.14596822 C30.2542113,3.66246518 30.0449906,3.22916475 29.7204174,2.91506174 C29.3832559,2.58877632 28.9216206,2.39111372 28.4154276,2.39941196 L13.2258255,2.64865481 C11.9125407,1.5171493 10.2027645,0.833333333 8.33333333,0.833333333 Z" id="Combined-Shape" stroke="#030303" stroke-width="1.66666667" fill="#FFFFFF"></path>
                        <circle id="Oval" stroke="#030303" stroke-width="1.66666667" fill="#FCCED5" cx="8.48484848" cy="8.48484848" r="3.40909091"></circle>
                        <path d="M11.3333333,18 C11.7015232,18 12,18.2984768 12,18.6666667 L12,20 C12,20.3681898 11.7015232,20.6666667 11.3333333,20.6666667 L11.3333333,20.6666667 L11.3333333,20.6666667 L11.3333333,18 Z" id="Rectangle" fill="#030303"></path>
                    </g>
                    <rect id="Rectangle" stroke="#030303" stroke-width="0.606060606" x="7.57575758" y="29.3939394" width="1" height="2.42424242" rx="0.303030303"></rect>
                </g>
            </g>
        </g>
    </g>
</svg>