<?xml version="1.0" encoding="UTF-8"?>
<svg width="48px" height="48px" viewBox="0 0 48 48" version="1.1" xmlns="http://www.w3.org/2000/svg" xmlns:xlink="http://www.w3.org/1999/xlink">
    <title>icon/handicap/generic/48</title>
    <g id="icon/handicap/generic/48" stroke="none" stroke-width="1" fill="none" fill-rule="evenodd">
        <g id="Group" transform="translate(4.000000, 4.000000)">
            <g id="Rectangle-11" transform="translate(6.036364, 0.000000)"></g>
            <rect id="Rectangle-10" fill="#FFF7E1" x="6.03636364" y="0" width="34" height="34" rx="8.04848485"></rect>
            <g id="IL_Handicap" transform="translate(0.000000, 5.030303)">
                <path d="M11.569697,34.5079279 C17.9594642,34.5079279 22.4472002,26.3374572 22.1333333,25.9564128 C21.630303,25.3457179 12.5757576,25.9564128 11.569697,22.9382309 C10.5556193,19.8959978 11.5774421,11.8715643 11.0744118,11.8715643 C4.68464457,11.8715643 0,16.5484637 0,22.9382309 C0,29.3279981 5.17992977,34.5079279 11.569697,34.5079279 Z" id="Oval-4" fill="#B5EDEA"></path>
                <circle id="Oval" fill="#FFFFFF" cx="14.0848485" cy="3.32004912" r="3.01818182"></circle>
                <circle id="Oval" stroke="#030303" stroke-width="1.50909091" stroke-linecap="round" cx="14.0848485" cy="3.32004912" r="3.01818182"></circle>
                <path d="M29.0763967,32.4302995 C29.3668762,33.2084843 29.0037768,34.1281573 28.2049581,34.4111336 C27.4061395,34.6941099 26.462081,34.3403895 26.1716015,33.5622047 L22.903707,25.6388685 C22.8310871,25.3558922 22.5406076,25.14366 22.1775082,25.14366 L15.5690992,25.14366 C13.1000233,25.14366 11.0666667,23.1628259 11.0666667,20.7575274 C11.0666667,20.7575274 11.0666667,17.9749272 11.0666667,12.4097268 C11.0666667,10.8533572 12.2285847,9.57996386 13.7536022,9.36773164 C15.4238594,9.2262435 16.876257,10.4288927 17.0214968,11.9852624 C17.0214968,12.0560064 17.0214968,12.1974946 17.0214968,12.2682386 L17.8203154,19.41339 C17.8203154,19.7671104 18.1107949,20.0500867 18.4738943,20.0500867 L23.8477654,20.5452952 C25.0096835,20.6867834 26.0263618,21.4649682 26.3894612,22.5261293 L29.0763967,32.4302995 Z" id="Shape" stroke="#030303" stroke-width="1.50909091" fill="#FFFFFF" stroke-linecap="round"></path>
                <path d="M22.1333333,25.380459 C21.0603884,31.4214342 15.2664858,35.4013709 9.18646456,34.3353164 C3.10644331,33.269262 -0.899217747,27.5125679 0.173727179,21.4715926 C1.10361278,16.3545312 5.53845181,12.5878055 10.7601171,12.3745946" id="Shape" stroke="#030303" stroke-width="1.50909091" stroke-linecap="round"></path>
            </g>
        </g>
    </g>
</svg>