<?xml version="1.0" encoding="UTF-8"?>
<svg width="48px" height="48px" viewBox="0 0 48 48" version="1.1" xmlns="http://www.w3.org/2000/svg" xmlns:xlink="http://www.w3.org/1999/xlink">
    <title>icon/hand-sanitizer/48</title>
    <g id="icon/hand-sanitizer/48" stroke="none" stroke-width="1" fill="none" fill-rule="evenodd">
        <rect id="Rectangle-8" fill="#FFF7E1" x="7" y="4" width="33.0078587" height="33.0078587" rx="7.76655498"></rect>
        <g id="Group-3" transform="translate(14.000000, 8.000000)">
            <g id="noun_1049793_cc" transform="translate(8.664853, 18.889352) scale(-1, 1) translate(-8.664853, -18.889352) translate(0.164853, 0.889352)" fill-rule="nonzero">
                <path d="M12.0187923,10.5979613 L12.0187923,6.08802009 C12.0187923,5.64530354 11.6748572,5.28696482 11.25108,5.28696482 L9.12246963,5.28696482 L9.12246963,1.60211055 L11.25108,1.60211055 C11.6748572,1.60211055 12.0187923,1.24323779 12.0187923,0.801055275 C12.0187923,0.358338727 11.6748572,0 11.25108,0 L1.67361286,0 C1.24932385,0 0.905900541,0.358338727 0.905900541,0.801055275 C0.905900541,1.24323779 1.24932385,1.60211055 1.67361286,1.60211055 L7.58704498,1.60211055 L7.58704498,5.28696482 L5.45894642,5.28696482 C5.03465741,5.28696482 4.6912341,5.64530354 4.6912341,6.08802009 L4.6912341,10.5979613 C1.91825719,12.0179653 0,14.9861421 0,18.4205331 L0,35.0050475 C0,35.44723 0.343935121,35.8061027 0.767712323,35.8061027 L15.9418023,35.8061027 C16.3655795,35.8061027 16.7095146,35.44723 16.7095146,35.0050475 L16.7095146,18.4210671 C16.7095146,14.9866761 14.7912574,12.0179653 12.0187923,10.5979613 Z M6.22665875,6.88907537 L10.4833677,6.88907537 L10.4833677,10.0009081 C9.80215094,9.81292712 9.09124933,9.70291553 8.35475731,9.70291553 C7.61826528,9.70291553 6.90736367,9.81292712 6.22665875,10.0003741 L6.22665875,6.88907537 Z M6.22665875,6.88907537 L10.4833677,6.88907537 L10.4833677,10.0009081 C9.80215094,9.81292712 9.09124933,9.70291553 8.35475731,9.70291553 C7.61826528,9.70291553 6.90736367,9.81292712 6.22665875,10.0003741 L6.22665875,6.88907537 Z M15.17409,34.2039922 L1.53542465,34.2039922 L1.53542465,18.4210671 C1.53542465,14.4969643 4.59450235,11.3055601 8.35475731,11.3055601 C12.1150123,11.3055601 15.17409,14.4974984 15.17409,18.4210671 L15.17409,34.2039922 Z" id="Shape" fill="#030303"></path>
                <path d="M15.17409,34.2039922 L1.53542465,34.2039922 L1.53542465,18.4210671 C1.53542465,14.4969643 4.59450235,11.3055601 8.35475731,11.3055601 C12.1150123,11.3055601 15.17409,14.4974984 15.17409,18.4210671 L15.17409,34.2039922 Z" id="Path" fill="#FFFFFF"></path>
            </g>
            <path d="M9.63498235,22.0540395 L9.63435753,24.3410395 L11.9227034,24.3417606 L11.9227034,26.3026643 L9.63435753,26.3020395 L9.63498235,28.5903854 L7.67407859,28.5903854 L7.67335753,26.3020395 L5.38635753,26.3026643 L5.38635753,24.3417606 L7.67335753,24.3410395 L7.67407859,22.0540395 L9.63498235,22.0540395 Z" id="Combined-Shape" fill="#E41764"></path>
            <path d="M17.8969559,11.398132 C19.7968322,9.09785043 20.7467703,7.39774385 20.7467703,6.29781226 C20.7467703,4.53095626 19.2835595,3.09863647 17.4785974,3.09863647 C15.6736353,3.09863647 14.2104245,4.53095626 14.2104245,6.29781226 C14.2104245,7.39774409 15.160363,9.09785118 17.0602402,11.3981335 C17.2528842,11.6313742 17.5963563,11.6628067 17.8274085,11.4683386 C17.8526408,11.4471015 17.8759182,11.4236035 17.8969559,11.398132 Z" id="Combined-Shape" fill="#0EB7BF" fill-rule="nonzero" transform="translate(17.478597, 7.347261) rotate(-180.000000) translate(-17.478597, -7.347261) "></path>
        </g>
    </g>
</svg>