<?xml version="1.0" encoding="UTF-8"?>
<svg width="48px" height="48px" viewBox="0 0 48 48" version="1.1" xmlns="http://www.w3.org/2000/svg" xmlns:xlink="http://www.w3.org/1999/xlink">
    <title>icon/hand-dryer/48</title>
    <g id="icon/hand-dryer/48" stroke="none" stroke-width="1" fill="none" fill-rule="evenodd">
        <g id="Group" transform="translate(7.000000, 4.000000)">
            <rect id="Rectangle-8" fill="#FFF7E1" x="0" y="0" width="34.2060606" height="34.2060606" rx="8.04848485"></rect>
            <g id="Group-4" transform="translate(0.500000, 5.000000)">
                <g id="Group-3">
                    <path d="M28.9696971,0.833333333 L3.75757564,0.833333333 C2.95006843,0.833333333 2.21900785,1.1606403 1.68982408,1.68982408 C1.1606403,2.21900785 0.833333333,2.95006843 0.833333333,3.75757564 L0.833333333,20.6134516 C0.833333333,21.3038075 1.11315536,21.9288075 1.56556638,22.3812185 C2.02313048,22.8387826 2.65723763,23.1198037 3.35694865,23.1133425 L10.7633719,23.5653054 L11.6237631,25.7075397 C11.71255,25.9286046 11.8640888,26.1115682 12.0529881,26.2392655 C12.2418873,26.3669628 12.4681469,26.4393939 12.7063754,26.4393939 L21.6187368,26.0819762 L23.3483743,23.1134516 L29.3939394,23.1134516 C30.0842953,23.1134516 30.7092953,22.8336296 31.1617063,22.3812185 C31.6141174,21.9288075 31.8939394,21.3038075 31.8939394,20.6134516 L31.8939394,3.75757564 C31.8939394,2.95006843 31.5666324,2.21900785 31.0374487,1.68982408 C30.5082649,1.1606403 29.7772043,0.833333333 28.9696971,0.833333333 Z" id="Rectangle" stroke="#030303" stroke-width="1.66666667" fill="#FFFFFF"></path>
                    <circle id="Oval" fill="#030303" cx="25.4545455" cy="16.969697" r="1.81818182"></circle>
                </g>
                <line x1="13.6363636" y1="28.7878788" x2="13.6363636" y2="31.8181818" id="Line" stroke="#B5EDEA" stroke-width="1.51515152" stroke-linecap="round"></line>
                <line x1="16.6666667" y1="28.7878788" x2="16.6666667" y2="33.6363636" id="Line-Copy" stroke="#B5EDEA" stroke-width="1.51515152" stroke-linecap="round"></line>
                <line x1="19.3939394" y1="28.7878788" x2="19.3939394" y2="35.1515152" id="Line-Copy-2" stroke="#B5EDEA" stroke-width="1.51515152" stroke-linecap="round"></line>
            </g>
        </g>
    </g>
</svg>