<?xml version="1.0" encoding="UTF-8"?>
<svg width="48px" height="48px" viewBox="0 0 48 48" version="1.1" xmlns="http://www.w3.org/2000/svg" xmlns:xlink="http://www.w3.org/1999/xlink">
    <title>icon/placeholder/48/web/happee-place</title>
    <g id="icon/placeholder/48/web/happee-place" stroke="none" stroke-width="1" fill="none" fill-rule="evenodd">
        <g id="icon" transform="translate(8.000000, 2.000000)">
            <path d="M17.5759867,41.5855505 C27.4586622,29.867419 32.4,21.2419325 32.4,15.7090909 C32.4,7.03319957 25.1470129,0 16.2,0 C7.25298705,0 0,7.03319957 0,15.7090909 C0,21.2419309 4.94133484,29.8674139 14.8240045,41.5855401 L14.8239923,41.5855504 C15.4649018,42.3454927 16.6005166,42.4419878 17.3604589,41.8010783 C17.4382659,41.7354585 17.5103669,41.6633575 17.5759867,41.5855505 Z" id="icon_Placeholder" fill="#0EB7BF"></path>
            <g id="icon_IL_Very_Clean" transform="translate(3.000000, 6.000000)">
                <path d="M4.18204746,6.04641969 L5.06247851,6.04641969 C5.06247851,4.62119219 6.25106041,3.45509696 7.70377164,3.45509696 L7.70377164,2.59132272 C6.25106041,2.59132272 5.06247851,1.4252275 5.06247851,0 C5.06247851,0 4.76900149,0 4.18204746,0 C4.18204746,1.4252275 2.99346555,2.59132272 1.54075433,2.59132272 C1.3695594,2.59132272 1.28396194,2.7352851 1.28396194,3.02320984 C1.28396194,3.31113459 1.3695594,3.45509696 1.54075433,3.45509696 C2.99346555,3.45509696 4.18204746,4.62119219 4.18204746,6.04641969 Z" id="Shape" fill="#030303" fill-rule="nonzero"></path>
                <path d="M4.62226298,1.68435977 C4.93041385,2.24581303 5.41465092,2.72088886 5.9869311,3.02320984 C5.41465092,3.32553083 4.93041385,3.80060666 4.62226298,4.36205992 C4.31411212,3.80060666 3.82987504,3.32553083 3.25759486,3.02320984 C3.82987504,2.72088886 4.31411212,2.24581303 4.62226298,1.68435977 Z" id="Path" fill="#FFC07D"></path>
                <path d="M12.9129887,11.0851028 L13.7934197,11.0851028 C13.7934197,9.65987526 14.9820016,8.49378003 16.4347128,8.49378003 L16.4347128,7.63000579 C14.9820016,7.63000579 13.7934197,6.46391057 13.7934197,5.03868307 C13.7934197,5.03868307 13.4999427,5.03868307 12.9129887,5.03868307 C12.9129887,6.46391057 11.7244067,7.63000579 10.2716955,7.63000579 C10.1005006,7.63000579 10.0149031,7.77396817 10.0149031,8.06189291 C10.0149031,8.34981766 10.1005006,8.49378003 10.2716955,8.49378003 C11.7244067,8.49378003 12.9129887,9.65987526 12.9129887,11.0851028 Z" id="Shape" fill="#030303" fill-rule="nonzero"></path>
                <path d="M13.3532042,6.72304284 C13.661355,7.2844961 14.1455921,7.75957193 14.7178723,8.06189291 C14.1455921,8.3642139 13.661355,8.83928973 13.3532042,9.40074299 C13.0450533,8.83928973 12.5608162,8.3642139 11.9885361,8.06189291 C12.5608162,7.75957193 13.0450533,7.2844961 13.3532042,6.72304284 Z" id="Path" fill="#FFC07D"></path>
                <path d="M23.7035941,1.00773661 L21.0694012,1.00773661 C20.0596273,1.00773661 19.2254662,1.78304365 19.1376598,2.73064115 L19.0937566,12.0343256 C18.8303373,11.9051078 18.5230148,11.77589 18.2156923,11.77589 L2.1997614,11.77589 C1.00682634,11.77589 0.039761402,12.7429549 0.039761402,13.93589 C0.039761402,14.3292764 0.039761402,14.7226628 0.039761402,15.1160492 C0.434890334,19.3371653 3.81543787,22.8455516 8.07404969,23.3624229 C7.98624326,23.7070039 7.67892076,24.2669478 6.80085647,24.2669478 L4.16666358,24.2669478 C3.11298643,24.2669478 1.09343856,24.913037 1.09343856,27.2820308 C1.09343856,27.5199142 1.28628121,27.7127569 1.52416469,27.7127569 L21.0079495,27.7127569 C21.4055945,27.7127569 21.7279495,27.3904019 21.7279495,26.9927569 L21.7279495,20.9023637 C21.7279898,20.5839799 21.9371113,20.3034025 22.2422196,20.2124237 C24.5335657,19.5291784 25.6792388,18.0091789 25.6792388,15.6524252 L25.6353356,2.73064115 C25.5036259,1.78304365 24.7133681,1.00773661 23.7035941,1.00773661 Z" id="Shape" stroke="#030303" stroke-width="0.72" fill="#030303" fill-rule="nonzero"></path>
                <path d="M20.8498852,20.2101576 L20.8498852,26.1313046 C20.8498852,26.5289496 20.5275302,26.8513046 20.1298852,26.8513046 L2.54788484,26.8513046 C2.34906283,26.8513037 2.18788575,26.6901266 2.18788575,26.4913046 C2.18788575,26.4350031 2.20109112,26.3794863 2.22644098,26.3292146 C2.63011974,25.5286716 3.27686061,25.1284001 4.16666358,25.1284001 L6.80085647,25.1284001 C8.24966255,25.1284001 8.82040434,24.13773 8.95211399,23.4054956 C9.03992042,23.4054956 9.12772685,23.4054956 9.21553328,23.4054956 C11.2509483,23.4054956 13.135456,22.7509486 14.6629855,21.6473412 C16.7268203,20.1562648 18.1390083,17.8454496 18.3913052,15.221699 C19.2693694,15.1355538 19.9718209,14.4033194 19.9718209,13.4987945 L19.9718209,3.18019793 C19.9718209,2.38490789 20.6165308,1.74019793 21.4118209,1.74019793 L23.3611745,1.74019793 C24.1564645,1.74019793 24.8011745,2.38490789 24.8011745,3.18019793 L24.8011745,15.6524252 L24.8011745,15.6524252 C24.8011745,17.9894328 23.6997927,19.2699077 21.4970291,19.4938498 L21.4970325,19.4938828 C21.129497,19.531248 20.8498852,19.8407276 20.8498852,20.2101576 Z" id="Path" fill="#FFFFFF"></path>
                <path d="M0.917825696,15.1160492 L17.5132409,15.1160492 C17.0742087,19.2669871 13.5180483,22.5440433 9.21553328,22.5440433 C4.91301824,22.5440433 1.35685784,19.2669871 0.917825696,15.1160492 Z" id="Path" fill="#E8FFF5"></path>
                <path d="M1.70230492,12.6373422 L18.1260575,12.6373422 L18.1260575,12.6373422 C18.5799326,12.6373422 18.9512849,13.0104843 18.9512849,13.4665467 C18.9512849,13.9226092 18.5799326,14.2957513 18.1260575,14.2957513 L1.70230492,14.2957513 C1.2443479,14.2957513 0.873100388,13.9245038 0.873100388,13.4665467 C0.873100388,13.0085897 1.2443479,12.6373422 1.70230492,12.6373422 Z" id="Path" fill="#FFFFFF"></path>
            </g>
        </g>
    </g>
</svg>