<?xml version="1.0" encoding="UTF-8"?>
<svg width="48px" height="48px" viewBox="0 0 48 48" version="1.1" xmlns="http://www.w3.org/2000/svg" xmlns:xlink="http://www.w3.org/1999/xlink">
    <title>icon/mirror/48</title>
    <g id="icon/mirror/48" stroke="none" stroke-width="1" fill="none" fill-rule="evenodd">
        <g id="Group-3" transform="translate(7.000000, 6.000000)">
            <g id="noun_mirror_1793244" transform="translate(16.716418, 17.104478)">
                <g id="Group"></g>
            </g>
            <rect id="Rectangle-8" fill="#FFF7E1" x="0" y="1" width="33.6955224" height="33.6955224" rx="7.92835821"></rect>
            <g id="Group-2" transform="translate(4.000000, 0.000000)" fill-rule="nonzero">
                <path d="M12.7062825,0 C4.51259331,0 8.48409237e-15,6.36062083 8.48409237e-15,17.9104478 C8.48409237e-15,29.2927325 4.63134575,35.8208955 12.7062825,35.8208955 C20.7809892,35.8208955 25.4123349,29.2927325 25.4123349,17.9104478 C25.4123349,6.36062083 20.8997416,0 12.7062825,0 Z" id="Path" fill="#000000"></path>
                <path d="M12.7062825,34.4069128 C8.4889594,34.4069128 1.41398272,32.2638452 1.41398272,17.9104478 C1.41398272,11.7495888 2.88112789,1.41398272 12.7062825,1.41398272 C22.5314372,1.41398272 23.9983522,11.7495888 23.9983522,17.9104478 C23.9983522,32.2638452 16.9233755,34.4069128 12.7062825,34.4069128 Z" id="Path" fill="#E8FFF5"></path>
                <path d="M12.7062825,2.96789081 C6.41447368,2.96789081 2.94947958,8.27469865 2.94947958,17.9104478 C2.94947958,27.4067318 6.5056093,32.8530047 12.7062825,32.8530047 C18.9067256,32.8530047 22.4628553,27.4067318 22.4628553,17.9104478 C22.4628553,8.27469865 18.9978612,2.96789081 12.7062825,2.96789081 Z" id="Path"></path>
                <path d="M12.7062825,31.439022 C9.59041145,31.439022 4.36346229,29.6814396 4.36346229,17.9104478 C4.36346229,12.857945 5.44742366,4.38187353 12.7062825,4.38187353 C19.9649112,4.38187353 21.0488726,12.857945 21.0488726,17.9104478 C21.0488726,29.6814396 15.8219235,31.439022 12.7062825,31.439022 Z" id="Path" fill="#E8FFF5"></path>
                <path d="M17.8213834,12.5401211 C17.5452149,12.2639526 17.097822,12.2639526 16.8216534,12.5401211 L7.59141177,21.7703628 C7.31524327,22.0463012 7.31524327,22.4941544 7.59141177,22.7700928 C7.72949604,22.908177 7.91038638,22.9772192 8.09127676,22.9772192 C8.27216715,22.9772192 8.45305749,22.908177 8.59114176,22.7700928 L17.8213834,13.5398511 C18.0975519,13.2639128 18.0975519,12.8160595 17.8213834,12.5401211 Z" id="Path" fill="#000000"></path>
                <path d="M8.34765318,17.9509525 C8.52854357,17.9509525 8.7094339,17.8819103 8.84751818,17.7438261 L13.4431922,13.1483823 C13.7189004,12.8724439 13.7189004,12.4245907 13.4431922,12.1486523 C13.1670237,11.8724838 12.7194006,11.8724838 12.4432321,12.1486523 L7.84778823,16.7440961 C7.57161973,17.0200345 7.57161973,17.4678877 7.84778823,17.7438261 C7.98587246,17.8819103 8.1667628,17.9509525 8.34765318,17.9509525 Z" id="Path" fill="#000000"></path>
                <path d="M16.2127019,17.8034325 L13.3060284,20.7098758 C13.0298599,20.9858141 13.0298599,21.4334372 13.3060284,21.7096058 C13.4441127,21.84769 13.6250031,21.9167321 13.8058934,21.9167321 C13.9867838,21.9167321 14.1676742,21.84769 14.3057584,21.7096058 L17.2124319,18.8031625 C17.4886004,18.5272241 17.4886004,18.079601 17.2124319,17.8034325 C16.9362634,17.5272639 16.4888704,17.527264 16.2127019,17.8034325 Z" id="Path" fill="#000000"></path>
            </g>
        </g>
    </g>
</svg>