<?xml version="1.0" encoding="UTF-8"?>
<svg width="48px" height="48px" viewBox="0 0 48 48" version="1.1" xmlns="http://www.w3.org/2000/svg" xmlns:xlink="http://www.w3.org/1999/xlink">
    <title>icon/placeholder/48/web/ok</title>
    <g id="icon/placeholder/48/web/ok" stroke="none" stroke-width="1" fill="none" fill-rule="evenodd">
        <g id="icon" transform="translate(8.000000, 2.000000)">
            <path d="M17.5759867,41.5855505 C27.4586622,29.867419 32.4,21.2419325 32.4,15.7090909 C32.4,7.03319957 25.1470129,0 16.2,0 C7.25298705,0 0,7.03319957 0,15.7090909 C0,21.2419309 4.94133484,29.8674139 14.8240045,41.5855401 L14.8239923,41.5855504 C15.4649018,42.3454927 16.6005166,42.4419878 17.3604589,41.8010783 C17.4382659,41.7354585 17.5103669,41.6633575 17.5759867,41.5855505 Z" id="icon_Placeholder" fill="#FFC07D"></path>
            <g id="icon_IL_Very_Clean" transform="translate(3.000000, 6.000000)">
                <path d="M24.0701277,2.21485748 L21.5334975,2.21485748 C20.5611226,2.21485748 19.7578564,2.96144945 19.673302,3.87395074 L19.6310249,12.8330543 C19.3773618,12.7086223 19.0814217,12.5841903 18.7854815,12.5841903 L3.4427332,12.5841903 C2.24979814,12.5841903 1.2827332,13.5512553 1.2827332,14.7441903 C1.2827332,15.0963402 1.2827332,15.4484901 1.2827332,15.80064 C1.66322773,19.8654185 4.9185698,23.2438645 9.01945526,23.7415925 C8.93490092,24.0734111 8.63896073,24.6126164 7.79341734,24.6126164 L5.25678716,24.6126164 C4.24213508,24.6126164 2.29738528,25.2347764 2.29738528,27.5160296 C2.29738528,27.7451026 2.48308561,27.9308029 2.71215859,27.9308029 L21.447655,27.9308029 C21.8453001,27.9308029 22.167655,27.608448 22.167655,27.2108029 L22.1676328,21.3925599 C22.1676328,21.0748088 22.3759213,20.7946248 22.6801973,20.7030722 C24.8751326,20.0426451 25.9726003,18.580671 25.9726003,16.3171501 L25.9303232,3.87395074 C25.8034916,2.96144945 25.0425026,2.21485748 24.0701277,2.21485748 Z" id="Shape" stroke="#030303" stroke-width="0.72" fill="#030303" fill-rule="nonzero"></path>
                <path d="M21.3221117,20.7301243 L21.3221117,26.3812563 C21.3221117,26.7789013 20.9997567,27.1012563 20.6021117,27.1012563 L3.71966016,27.1012563 C3.52086885,27.1011998 3.35971665,26.9400476 3.35971665,26.7412563 C3.35971665,26.6839251 3.37341135,26.6274233 3.39966071,26.5764544 C3.789106,25.8202602 4.40814815,25.4421631 5.25678716,25.4421631 L7.79341734,25.4421631 C9.18856394,25.4421631 9.73816715,24.4881844 9.86499866,23.7830698 C9.949553,23.7830698 10.0341073,23.7830698 10.1186617,23.7830698 C12.0786909,23.7830698 13.893402,23.1527653 15.3643564,22.0900323 C17.3517529,20.6541809 18.7116376,18.4289515 18.9545901,15.9023768 C19.8001335,15.8194222 20.4765683,15.1143075 20.4765683,14.2432836 L20.4765683,4.3601906 C20.4765683,3.56490056 21.1212782,2.9201906 21.9165683,2.9201906 L23.6870569,2.9201906 C24.482347,2.9201906 25.1270569,3.56490056 25.1270569,4.3601906 L25.1270569,16.3171501 L25.1270569,16.3171501 C25.1270569,18.5600015 24.0736188,19.7923114 21.9667427,20.0140801 C21.600299,20.0526503 21.3221117,20.3616563 21.3221117,20.7301243 Z" id="Path" fill="#FFFFFF"></path>
                <path d="M2.1282766,15.80064 L18.1090468,15.80064 C17.6862751,19.7978394 14.2618243,22.9535232 10.1186617,22.9535232 C5.97549904,22.9535232 2.55104829,19.7978394 2.1282766,15.80064 Z" id="Path" fill="#FFF7E1"></path>
                <path d="M2.88370103,13.413737 L18.6991665,13.413737 L18.6991665,13.413737 C19.1362314,13.413737 19.4938299,13.7730589 19.4938299,14.2122302 C19.4938299,14.6514015 19.1362314,15.0107235 18.6991665,15.0107235 L2.88370103,15.0107235 C2.44270539,15.0107235 2.08520778,14.6532258 2.08520778,14.2122302 C2.08520778,13.7712346 2.44270539,13.413737 2.88370103,13.413737 Z" id="Path" fill="#FFFFFF"></path>
                <path d="M3.86154882,3.09690469 C4.56749175,3.09690469 5.21007118,3.26185742 5.7893064,3.59176785 C6.36854162,3.92167827 6.82332495,4.3758632 7.15367003,4.95433627 C7.48401512,5.53280933 7.64918519,6.17906252 7.64918519,6.89311521 C7.64918519,7.59812927 7.48401512,8.2398632 7.15367003,8.81833627 C6.82332495,9.39680933 6.36854162,9.85099427 5.7893064,10.1809047 C5.21007118,10.5108151 4.56749175,10.6757678 3.86154882,10.6757678 C3.14655535,10.6757678 2.49945071,10.5108151 1.92021549,10.1809047 C1.34098027,9.85099427 0.886196938,9.39680933 0.555851852,8.81833627 C0.225506766,8.2398632 0.0603367003,7.59812927 0.0603367003,6.89311521 C0.0603367003,6.17906252 0.225506766,5.53280933 0.555851852,4.95433627 C0.886196938,4.3758632 1.34098027,3.92167827 1.92021549,3.59176785 C2.49945071,3.26185742 3.14655535,3.09690469 3.86154882,3.09690469 Z M3.86154882,3.85614679 C3.3004147,3.85614679 2.79359149,3.98946476 2.34106397,4.25610469 C1.88853646,4.52274462 1.53104508,4.88654449 1.26857912,5.34751521 C1.00611317,5.80848594 0.874882155,6.32368079 0.874882155,6.89311521 C0.874882155,7.46254964 1.00611317,7.97774449 1.26857912,8.43871521 C1.53104508,8.89968594 1.88853646,9.26122618 2.34106397,9.52334679 C2.79359149,9.7854674 3.3004147,9.91652574 3.86154882,9.91652574 C4.42268294,9.91652574 4.92950615,9.7854674 5.38203367,9.52334679 C5.83456119,9.26122618 6.18978996,8.89968594 6.44773064,8.43871521 C6.70567132,7.97774449 6.83463973,7.46254964 6.83463973,6.89311521 C6.83463973,6.32368079 6.70567132,5.80848594 6.44773064,5.34751521 C6.18978996,4.88654449 5.83456119,4.52274462 5.38203367,4.25610469 C4.92950615,3.98946476 4.42268294,3.85614679 3.86154882,3.85614679 Z M15.2923367,9.99787311 C15.3556906,10.0701822 15.387367,10.1515288 15.387367,10.2419152 C15.387367,10.3413403 15.3375897,10.4362446 15.2380337,10.526631 C15.1475282,10.5989401 15.0660744,10.6350942 14.99367,10.6350942 C14.8850634,10.6350942 14.7900341,10.5808631 14.7085791,10.4723994 L11.7626397,6.87955732 L10.5000943,8.03197837 L10.5000943,10.1876836 C10.5000943,10.305186 10.4638926,10.4023499 10.3914882,10.4791784 C10.3190838,10.5560068 10.2195293,10.5944205 10.0928215,10.5944205 C9.97516439,10.5944205 9.87787244,10.5560068 9.80094276,10.4791784 C9.72401308,10.4023499 9.68554882,10.305186 9.68554882,10.1876836 L9.68554882,0.41244153 C9.68554882,0.285900546 9.72401308,0.186476979 9.80094276,0.114167846 C9.87787244,0.0418587124 9.97516439,0.00570468795 10.0928215,0.00570468795 C10.2195293,0.00570468795 10.3190838,0.0418587124 10.3914882,0.114167846 C10.4638926,0.186476979 10.5000943,0.285900546 10.5000943,0.41244153 L10.5000943,7.04225206 L14.7085791,3.21892574 C14.7990846,3.14661661 14.8850636,3.11046258 14.9665185,3.11046258 C15.057024,3.11046258 15.143003,3.15565511 15.2244579,3.24604153 C15.3059129,3.32738931 15.3466397,3.41325511 15.3466397,3.50364153 C15.3466397,3.59402795 15.3013877,3.67989375 15.2108822,3.76124153 L12.3328215,6.37791521 L15.2923367,9.99787311 Z" id="ok" stroke="#000000" stroke-width="0.4" fill="#030303"></path>
            </g>
        </g>
    </g>
</svg>