<?xml version="1.0" encoding="UTF-8"?>
<svg width="48px" height="48px" viewBox="0 0 48 48" version="1.1" xmlns="http://www.w3.org/2000/svg" xmlns:xlink="http://www.w3.org/1999/xlink">
    <title>icon/potable-water/48</title>
    <g id="icon/potable-water/48" stroke="none" stroke-width="1" fill="none" fill-rule="evenodd">
        <g id="Group-2" transform="translate(7.000000, 5.000000)">
            <rect id="Rectangle-8" fill="#FFF7E1" x="0" y="2" width="34.2060606" height="34.2060606" rx="8.04848485"></rect>
            <g id="Group" transform="translate(3.636364, 10.939394)">
                <path d="M22.6987017,0.757575758 L3.83899319,0.757575758 C3.66123526,0.757575758 3.48409108,0.778430115 3.31119297,0.819711212 C2.7007549,0.965459217 2.207183,1.34483819 1.90265761,1.84038968 C1.59813223,2.33594117 1.48265337,2.94766517 1.62840137,3.55810325 L6.40359517,23.5581032 C6.5257349,24.0696625 6.81541376,24.5058943 7.20604223,24.8142362 C7.59667071,25.1225782 8.0882488,25.3030303 8.61418699,25.3030303 L17.2413374,25.3030303 C17.7537264,25.3030303 18.2344264,25.1315773 18.62075,24.8365451 C19.0070735,24.5415128 19.2990207,24.1229015 19.433904,23.6285848 L24.8912683,3.62858476 C24.9444711,3.43360878 24.971429,3.23240737 24.971429,3.03030303 C24.971429,2.40270672 24.7170454,1.83452491 24.3057626,1.42324216 C23.8944799,1.01195942 23.3262981,0.757575758 22.6987017,0.757575758 Z" id="Rectangle" stroke="#030303" stroke-width="1.51515152" fill="#FFFFFF"></path>
                <path d="M7.24040715,12.1212121 L18.6263501,12.1212121 C20.2999403,12.1212121 21.6566532,13.477925 21.6566532,15.1515152 C21.6566532,15.5216612 21.5888389,15.8886753 21.4565687,16.2343814 L18.4420759,24.1131693 C17.9933242,25.2860432 16.8676485,26.0606061 15.6118574,26.0606061 L9.87808831,26.0606061 C8.57520778,26.0606061 7.4181604,25.2277991 7.00454225,23.9923163 L4.36686109,16.1135284 C3.83555584,14.5265127 4.69137824,12.8092743 6.2783939,12.2779691 C6.58850563,12.1741491 6.91337829,12.1212121 7.24040715,12.1212121 Z" id="Rectangle" fill="#B5EDEA"></path>
                <path d="M22.6987017,0.757575758 L3.83899319,0.757575758 C3.66123526,0.757575758 3.48409108,0.778430115 3.31119297,0.819711212 C2.7007549,0.965459217 2.207183,1.34483819 1.90265761,1.84038968 C1.59813223,2.33594117 1.48265337,2.94766517 1.62840137,3.55810325 L6.40359517,23.5581032 C6.5257349,24.0696625 6.81541376,24.5058943 7.20604223,24.8142362 C7.59667071,25.1225782 8.0882488,25.3030303 8.61418699,25.3030303 L17.2413374,25.3030303 C17.7537264,25.3030303 18.2344264,25.1315773 18.62075,24.8365451 C19.0070735,24.5415128 19.2990207,24.1229015 19.433904,23.6285848 L24.8912683,3.62858476 C24.9444711,3.43360878 24.971429,3.23240737 24.971429,3.03030303 C24.971429,2.40270672 24.7170454,1.83452491 24.3057626,1.42324216 C23.8944799,1.01195942 23.3262981,0.757575758 22.6987017,0.757575758 Z" id="Rectangle" stroke="#030303" stroke-width="1.51515152"></path>
            </g>
            <path d="M17.3576057,8.33179068 C19.1192019,6.19893225 20,4.62256582 20,3.60269139 C20,1.96443381 18.6432871,0.636363636 16.969697,0.636363636 C15.2961068,0.636363636 13.9393939,1.96443381 13.9393939,3.60269139 C13.9393939,4.62256605 14.8201924,6.19893295 16.5817894,8.33179209 C16.760412,8.54805662 17.078885,8.57720139 17.2931203,8.39688737 C17.3165161,8.37719596 17.3380992,8.35540826 17.3576057,8.33179068 Z" id="Combined-Shape" fill="#0EB7BF" fill-rule="nonzero" transform="translate(16.969697, 4.575758) rotate(-180.000000) translate(-16.969697, -4.575758) "></path>
        </g>
    </g>
</svg>