<?xml version="1.0" encoding="UTF-8"?>
<svg width="48px" height="48px" viewBox="0 0 48 48" version="1.1" xmlns="http://www.w3.org/2000/svg" xmlns:xlink="http://www.w3.org/1999/xlink">
    <title>icon/done/48</title>
    <g id="icon/done/48" stroke="none" stroke-width="1" fill="none" fill-rule="evenodd">
        <g id="Group" transform="translate(5.000000, 5.000000)">
            <circle id="Oval-3" fill="#0EB7BF" cx="19.1582684" cy="19.1582695" r="19.0145455"></circle>
            <path d="M19.3163639,3.22973971e-15 C21.9824379,3.22973971e-15 24.4912765,0.50302528 26.8429549,1.50909093 C29.1946334,2.51515658 31.2444614,3.89218829 32.9925005,5.64022736 C34.7405396,7.38826643 36.1175713,9.43809444 37.1236369,11.7897729 C38.1297026,14.1414514 38.6327278,16.6502899 38.6327278,19.3163639 C38.6327278,21.9824379 38.1297026,24.4912765 37.1236369,26.8429549 C36.1175713,29.1946334 34.7405396,31.2444614 32.9925005,32.9925005 C31.2444614,34.7405396 29.1946334,36.1175713 26.8429549,37.1236369 C24.4912765,38.1297026 21.9824379,38.6327278 19.3163639,38.6327278 C16.6502899,38.6327278 14.1414514,38.1297026 11.7897729,37.1236369 C9.43809444,36.1175713 7.38826643,34.7405396 5.64022736,32.9925005 C3.89218829,31.2444614 2.51515658,29.1946334 1.50909093,26.8429549 C0.50302528,24.4912765 3.22973971e-15,21.9824379 3.22973971e-15,19.3163639 C3.22973971e-15,16.6502899 0.50302528,14.1414514 1.50909093,11.7897729 C2.51515658,9.43809444 3.89218829,7.38826643 5.64022736,5.64022736 C7.38826643,3.89218829 9.43809444,2.51515658 11.7897729,1.50909093 C14.1414514,0.50302528 16.6502899,3.22973971e-15 19.3163639,3.22973971e-15 Z M19.3163639,36.2559096 C21.6554666,36.2559096 23.8499143,35.8094747 25.8997731,34.9165914 C27.9496319,34.0237082 29.7353716,32.8101597 31.2570459,31.2759096 C32.7787202,29.7416594 33.9859809,27.9496319 34.8788642,25.8997731 C35.7717474,23.8499143 36.2181824,21.6554666 36.2181824,19.3163639 C36.2181824,16.9772613 35.7717474,14.7828135 34.8788642,12.7329547 C33.9859809,10.683096 32.7787202,8.89735623 31.2570459,7.37568193 C29.7353716,5.85400763 27.9496319,4.64674696 25.8997731,3.75386369 C23.8499143,2.86098043 21.6554666,2.41454549 19.3163639,2.41454549 C16.9772613,2.41454549 14.7828135,2.86098043 12.7329547,3.75386369 C10.683096,4.64674696 8.89735623,5.85400763 7.37568193,7.37568193 C5.85400763,8.89735623 4.64674696,10.683096 3.75386369,12.7329547 C2.86098043,14.7828135 2.41454549,16.9772613 2.41454549,19.3163639 C2.41454549,21.6554666 2.86098043,23.8499143 3.75386369,25.8997731 C4.64674696,27.9496319 5.85400763,29.7416594 7.37568193,31.2759096 C8.89735623,32.8101597 10.683096,34.0237082 12.7329547,34.9165914 C14.7828135,35.8094747 16.9772613,36.2559096 19.3163639,36.2559096 Z M27.0127277,12.2613638 C27.2642441,12.0098474 27.5534836,11.8840911 27.880455,11.8840911 C28.2074263,11.8840911 28.4966658,12.0098474 28.7481822,12.2613638 C28.974547,12.4877286 29.0877277,12.7706803 29.0877277,13.1102275 C29.0877277,13.4497746 28.974547,13.7327263 28.7481822,13.9590911 L16.7131821,26.0695458 C16.6880304,26.0946975 16.6628792,26.1198487 16.6377275,26.1450004 C16.6125759,26.170152 16.5874246,26.1953033 16.562273,26.2204549 C16.3359082,26.4719713 16.0529565,26.5977277 15.7134093,26.5977277 C15.3738622,26.5977277 15.0909104,26.4719713 14.8645457,26.2204549 L8.86590922,20.2595458 C8.63954445,20.033181 8.52636376,19.7502293 8.52636376,19.4106821 C8.52636376,19.071135 8.63954445,18.7881832 8.86590922,18.5618185 C9.11742564,18.310302 9.40666517,18.1845457 9.73363651,18.1845457 C10.0606078,18.1845457 10.3498474,18.310302 10.6013638,18.5618185 L15.6945457,23.6550004 L27.0127277,12.2613638 Z" id="Check---simple-line-icons" fill="#030303"></path>
        </g>
    </g>
</svg>