<?xml version="1.0" encoding="UTF-8"?>
<svg width="48px" height="48px" viewBox="0 0 48 48" version="1.1" xmlns="http://www.w3.org/2000/svg" xmlns:xlink="http://www.w3.org/1999/xlink">
    <title>icon/paper/yes/48</title>
    <g id="icon/paper/yes/48" stroke="none" stroke-width="1" fill="none" fill-rule="evenodd">
        <g id="IL_Toilet_Paper" transform="translate(7.000000, 7.000000)">
            <rect id="Rectangle-8" fill="#FFF7E1" x="0" y="0" width="33.6955224" height="33.6955224" rx="7.92835821"></rect>
            <path d="M27.4214897,5.91940299 L10.6890284,5.91940299 C5.32606004,5.91940299 0.964179104,10.3083156 0.964179104,15.7491163 L0.964179104,32.6518705 C0.964179104,34.8644628 2.7160821,36.641791 4.89702257,36.641791 L19.2340246,36.641791 C21.4149651,36.641791 23.1668681,34.8644628 23.1668681,32.6518705 L23.1668681,25.5425576 L27.2069709,25.5425576 C30.2817395,25.5425576 32.6771987,21.226189 32.6771987,15.7128443 C32.7129518,10.3445876 30.424752,6.10076301 27.4214897,5.91940299 Z" id="Path" fill="#030303"></path>
            <path d="M10.6890284,7.37028318 L24.3467212,7.37028318 C22.7735838,9.0750674 21.7367432,12.1581878 21.7367432,15.7128443 L21.7367432,25.0347495 L2.394304,25.0347495 L2.394304,15.7491163 C2.394304,11.1062997 6.11262873,7.37028318 10.6890284,7.37028318 L10.6890284,7.37028318 Z" id="Path" fill="#FFFFFF"></path>
            <path d="M4.89702257,35.2271829 C3.50265079,35.2271829 2.394304,34.1027507 2.394304,32.6881425 L2.394304,25.1208955 L21.7367432,25.1208955 L21.7367432,32.6881425 C21.7367432,34.0664787 20.6283964,35.1909109 19.2697778,35.2271829 L4.89702257,35.2271829 Z" id="Path" fill="#FFFFFF"></path>
            <path d="M23.2026212,22.4231652 C23.5243993,23.0397892 23.8819306,23.6201413 24.3467212,24.1279494 L23.1668681,24.1279494 L23.2026212,22.4231652 Z" id="Path" fill="#030303"></path>
            <path d="M27.2427241,24.1279494 C25.0260305,24.1279494 23.2026212,20.2831169 23.2026212,15.7491163 C23.2026212,11.2513877 25.0260305,7.47909919 27.1712178,7.37028318 L27.3499834,7.37028318 C29.4951708,7.47909919 31.31858,11.2513877 31.31858,15.7491163 C31.2828269,20.2831169 29.4236645,24.0916774 27.2427241,24.1279494 L27.2427241,24.1279494 Z" id="Path" fill="#FFFFFF"></path>
            <path d="M27.1622323,12.2035278 C25.9665152,12.2035278 25.093965,13.8651954 25.093965,16.0438263 C25.093965,18.2224572 25.9988319,19.8841248 27.1622323,19.8841248 C28.3256327,19.8841248 29.2304997,18.2224572 29.2304997,16.0438263 C29.2304997,13.8651954 28.3579494,12.2035278 27.1622323,12.2035278 Z" id="Path" fill="#030303"></path>
            <path d="M27.1622323,18.370161 C26.9036989,18.370161 26.3866321,17.4470123 26.3866321,16.0069004 C26.3866321,14.5667884 26.9036989,13.6436398 27.1622323,13.6436398 C27.4207657,13.6436398 27.9378326,14.5667884 27.9378326,16.0069004 C27.9378326,17.4470123 27.4207657,18.370161 27.1622323,18.370161 Z" id="Path" fill="#030303"></path>
        </g>
    </g>
</svg>