<?xml version="1.0" encoding="UTF-8"?>
<svg width="48px" height="48px" viewBox="0 0 48 48" version="1.1" xmlns="http://www.w3.org/2000/svg" xmlns:xlink="http://www.w3.org/1999/xlink">
    <title>icon/placeholder/48/web/unknown</title>
    <g id="icon/placeholder/48/web/unknown" stroke="none" stroke-width="1" fill="none" fill-rule="evenodd">
        <g id="icon" transform="translate(8.000000, 2.000000)" fill="#C5DBDC">
            <path d="M17.5759867,41.5855505 C27.4586622,29.867419 32.4,21.2419325 32.4,15.7090909 C32.4,7.03319957 25.1470129,0 16.2,0 C7.25298705,0 0,7.03319957 0,15.7090909 C0,21.2419309 4.94133484,29.8674139 14.8240045,41.5855401 L14.8239923,41.5855504 C15.4649018,42.3454927 16.6005166,42.4419878 17.3604589,41.8010783 C17.4382659,41.7354585 17.5103669,41.6633575 17.5759867,41.5855505 Z" id="icon_Placeholder"></path>
        </g>
        <g id="icon_IL_Very_Clean" transform="translate(12.000000, 10.000000)">
            <path d="M23.0701277,0.21485748 L20.5334975,0.21485748 C19.5611226,0.21485748 18.7578564,0.961449445 18.673302,1.87395074 L18.6310249,10.8330543 C18.3773618,10.7086223 18.0814217,10.5841903 17.7854815,10.5841903 L2.4427332,10.5841903 C1.24979814,10.5841903 0.282733202,11.5512553 0.282733202,12.7441903 C0.282733202,13.0963402 0.282733202,13.4484901 0.282733202,13.80064 C0.663227729,17.8654185 3.9185698,21.2438645 8.01945526,21.7415925 C7.93490092,22.0734111 7.63896073,22.6126164 6.79341734,22.6126164 L4.25678716,22.6126164 C3.24213508,22.6126164 1.29738528,23.2347764 1.29738528,25.5160296 C1.29738528,25.7451026 1.48308561,25.9308029 1.71215859,25.9308029 L20.447655,25.9308029 C20.8453001,25.9308029 21.167655,25.608448 21.167655,25.2108029 L21.1676328,19.3925599 C21.1676328,19.0748088 21.3759213,18.7946248 21.6801973,18.7030722 C23.8751326,18.0426451 24.9726003,16.580671 24.9726003,14.3171501 L24.9303232,1.87395074 C24.8034916,0.961449445 24.0425026,0.21485748 23.0701277,0.21485748 Z" id="Shape" stroke="#030303" stroke-width="0.72" fill="#030303" fill-rule="nonzero"></path>
            <path d="M20.3221117,18.7301243 L20.3221117,24.3812563 C20.3221117,24.7789013 19.9997567,25.1012563 19.6021117,25.1012563 L2.71966016,25.1012563 C2.52086885,25.1011998 2.35971665,24.9400476 2.35971665,24.7412563 C2.35971665,24.6839251 2.37341135,24.6274233 2.39966071,24.5764544 C2.789106,23.8202602 3.40814815,23.4421631 4.25678716,23.4421631 L6.79341734,23.4421631 C8.18856394,23.4421631 8.73816715,22.4881844 8.86499866,21.7830698 C8.949553,21.7830698 9.03410733,21.7830698 9.11866167,21.7830698 C11.0786909,21.7830698 12.893402,21.1527653 14.3643564,20.0900323 C16.3517529,18.6541809 17.7116376,16.4289515 17.9545901,13.9023768 C18.8001335,13.8194222 19.4765683,13.1143075 19.4765683,12.2432836 L19.4765683,2.3601906 C19.4765683,1.56490056 20.1212782,0.920190597 20.9165683,0.920190597 L22.6870569,0.920190597 C23.482347,0.920190597 24.1270569,1.56490056 24.1270569,2.3601906 L24.1270569,14.3171501 L24.1270569,14.3171501 C24.1270569,16.5600015 23.0736188,17.7923114 20.9667427,18.0140801 C20.600299,18.0526503 20.3221117,18.3616563 20.3221117,18.7301243 Z" id="Path" fill="#FFFFFF"></path>
            <path d="M1.1282766,13.80064 L17.1090468,13.80064 C16.6862751,17.7978394 13.2618243,20.9535232 9.11866167,20.9535232 C4.97549904,20.9535232 1.55104829,17.7978394 1.1282766,13.80064 Z" id="Path" fill="#FFF7E1"></path>
            <path d="M1.88370103,11.413737 L17.6991665,11.413737 L17.6991665,11.413737 C18.1362314,11.413737 18.4938299,11.7730589 18.4938299,12.2122302 C18.4938299,12.6514015 18.1362314,13.0107235 17.6991665,13.0107235 L1.88370103,13.0107235 C1.44270539,13.0107235 1.08520778,12.6532258 1.08520778,12.2122302 C1.08520778,11.7712346 1.44270539,11.413737 1.88370103,11.413737 Z" id="Path" fill="#FFFFFF"></path>
        </g>
        <path d="M23.5,15.3350063 C23.6695157,15.3350063 23.8091168,15.2772898 23.9188034,15.161857 C24.02849,15.0464241 24.0833333,14.9033877 24.0833333,14.7327478 C24.0833333,14.4015056 24.1406695,14.0677541 24.2553419,13.7314931 C24.3700142,13.3952321 24.5669516,13.1016311 24.8461538,12.8506901 L24.8461538,12.8506901 L25.1153846,12.6097867 C25.5641026,12.1982434 25.9106125,11.8519448 26.1549145,11.5708908 C26.3992165,11.2898369 26.6011396,10.966123 26.7606838,10.5997491 C26.9202279,10.2333752 27,9.804266 27,9.31242158 C27,8.68005019 26.8529202,8.11292346 26.5587607,7.61104141 C26.2646011,7.10915935 25.8557692,6.71518193 25.332265,6.42910916 C24.8087607,6.14303639 24.2179487,6 23.5598291,6 C22.8618234,6 22.2435897,6.15056462 21.7051282,6.45169385 C21.1666667,6.75282309 20.7478632,7.16938519 20.4487179,7.70138018 C20.1495726,8.23337516 20,8.84065245 20,9.52321205 C20,9.69385194 20.0548433,9.83186951 20.1645299,9.93726474 C20.2742165,10.04266 20.4138177,10.0953576 20.5833333,10.0953576 C20.752849,10.0953576 20.8899573,10.04266 20.9946581,9.93726474 C21.099359,9.83186951 21.1517094,9.69385194 21.1517094,9.52321205 C21.1517094,8.81053952 21.3685897,8.23086575 21.8023504,7.78419072 C22.2361111,7.33751568 22.8219373,7.11417817 23.5598291,7.11417817 C24.008547,7.11417817 24.4074074,7.20953576 24.7564103,7.40025094 C25.1054131,7.59096612 25.3746439,7.84943538 25.5641026,8.17565872 C25.7535613,8.50188206 25.8482906,8.86072773 25.8482906,9.25219573 C25.8482906,9.65370138 25.7859687,10.0075282 25.6613248,10.3136763 C25.5366809,10.6198243 25.3796296,10.880803 25.1901709,11.0966123 C25.0007123,11.3124216 24.7364672,11.5809285 24.3974359,11.902133 L24.3974359,11.902133 L24.0235043,12.2484316 C23.6844729,12.5696361 23.4152422,12.9611041 23.215812,13.4228356 C23.0163818,13.8845671 22.9166667,14.3212045 22.9166667,14.7327478 C22.9166667,14.9033877 22.97151,15.0464241 23.0811966,15.161857 C23.1908832,15.2772898 23.3304843,15.3350063 23.5,15.3350063 Z M23.5,18 C23.7393162,18 23.9462251,17.9146801 24.1207265,17.7440402 C24.2952279,17.5734003 24.3824786,17.3676286 24.3824786,17.1267252 C24.3824786,16.8757842 24.2952279,16.6649937 24.1207265,16.4943538 C23.9462251,16.3237139 23.7393162,16.238394 23.5,16.238394 C23.2606838,16.238394 23.0562678,16.3237139 22.8867521,16.4943538 C22.7172365,16.6649937 22.6324786,16.8757842 22.6324786,17.1267252 C22.6324786,17.3676286 22.7147436,17.5734003 22.8792735,17.7440402 C23.0438034,17.9146801 23.2507123,18 23.5,18 Z" id="?" stroke="#000000" stroke-width="0.2" fill="#000000" fill-rule="nonzero"></path>
    </g>
</svg>