<?xml version="1.0" encoding="UTF-8"?>
<svg width="24px" height="24px" viewBox="0 0 24 24" version="1.1" xmlns="http://www.w3.org/2000/svg" xmlns:xlink="http://www.w3.org/1999/xlink">
    <title>icon/walk</title>
    <defs>
        <path d="M9.18430132,15.3086477 C9.39130417,15.3019059 9.57294967,15.4341847 9.63472624,15.6247144 L9.65358746,15.7097009 C9.67941155,15.914824 9.69578781,16.1214168 9.70271622,16.3240205 C9.77493971,18.5469923 8.76905968,20.3229762 7.41172,20.3672761 L7.36028176,20.367696 C6.0312856,20.367696 4.9342864,18.6609962 4.86290272,16.4823243 C4.8559743,16.2748917 4.85912358,16.0672492 4.87151075,15.8648555 C4.88542583,15.6288938 5.07687615,15.4424222 5.31312245,15.4347279 L9.18430132,15.3086477 Z M8.66591705,16.2413216 L5.89075981,16.3318116 C5.82664713,16.3339419 5.77636723,16.3876113 5.7784578,16.4517252 L5.77850339,16.452931 C5.83624019,18.2203069 6.65883213,19.4520953 7.36049171,19.4520953 L7.38253667,19.4516754 C8.06600601,19.429706 8.78643228,18.2508494 8.79096225,16.5670954 L8.78774541,16.3540436 L8.78774541,16.3540436 C8.78483609,16.2894568 8.73053503,16.2392146 8.66591705,16.2413216 Z M14.0426297,13.8356102 L17.9142579,13.9620054 C18.1215238,13.9687719 18.294336,14.1128814 18.3434606,14.3073111 L18.3566811,14.3934652 C18.3686483,14.599638 18.3709578,14.8068607 18.3648692,15.0086245 C18.2932756,17.1881363 17.1958564,18.895256 15.8668603,18.895256 L15.8152121,18.8944162 C14.4582923,18.8496964 13.4524123,17.0737124 13.5250557,14.8509506 C13.5315642,14.6458275 13.5479404,14.4392347 13.5733446,14.236631 C13.6026006,14.0017507 13.8060604,13.8278871 14.0426297,13.8356102 Z M14.5601785,14.7686327 C14.4961603,14.7664965 14.4425629,14.8166951 14.4404666,14.8807146 L14.4404464,14.8813936 C14.3814499,16.6777429 15.1339179,17.9559307 15.8456551,17.9792354 L15.8670702,17.9796553 C16.5402988,17.9796553 17.3238207,16.8483774 17.4387617,15.1976492 L17.4498984,14.9794412 L17.4498984,14.9794412 C17.4519894,14.9153161 17.4017056,14.8616351 17.3375794,14.8595774 L14.5601785,14.7686327 Z M7.69662486,4.87260854 C7.74575363,4.87260854 7.79509235,4.87424819 7.84422112,4.87793739 C9.66324525,5.00787926 10.9103601,7.49091681 10.6819324,10.5306139 C10.5838848,11.8437646 10.2128996,13.0864107 9.63784106,14.0294115 C9.53268654,14.20212 9.32663304,14.2853226 9.13103852,14.234054 L9.12597808,14.2327275 C8.51123862,14.0718374 7.85198934,13.9652604 7.16628611,13.916481 C6.48478192,13.8681115 5.80579715,13.879589 5.18077005,13.9505036 L5.17313385,13.9513793 C5.00179264,13.9710274 4.8369558,13.8917396 4.74422932,13.7518879 L4.70417901,13.6770928 C4.27566698,12.6623574 4.0940585,11.3797451 4.19231603,10.0670042 C4.41444525,7.10580517 5.9210608,4.87260854 7.69662486,4.87260854 Z M7.69662486,5.92236854 C6.6038247,5.92236854 5.30191235,7.63704332 5.10623709,10.1893224 C5.02792499,11.2112357 5.14318864,12.202698 5.43271245,13.0208697 C5.72958458,12.9974304 6.03506474,12.9862116 6.34390413,12.9862116 C6.63678717,12.9862116 6.93596877,12.9968294 7.2332608,13.017464 C7.84884006,13.0605362 8.4457336,13.1454786 9.01365376,13.2706885 C9.42452982,12.5017994 9.69074896,11.5369819 9.76906106,10.5154692 C9.95318896,8.11564573 9.04115747,6.0137217 7.77745638,5.92517325 C7.75037258,5.92316989 7.72370867,5.92236854 7.69662486,5.92236854 Z M15.6183489,3 C17.3285206,3 18.7789629,5.23319662 18.9924059,8.19439566 C19.0867979,9.50836625 18.9119606,10.7905687 18.4996275,11.8046892 L18.4982332,11.808128 C18.4347781,11.9646265 18.2883872,12.0682379 18.1246341,12.0801627 L18.0416143,12.078305 C17.4380718,12.0071854 16.7846047,11.995298 16.1297227,12.0438724 C15.468777,12.0928568 14.8337032,12.1992288 14.2430967,12.3603239 C14.0529037,12.4119865 13.8516728,12.3298838 13.7519053,12.1599167 L13.7503182,12.1572129 C13.1964983,11.2135972 12.8395471,9.97115608 12.744751,8.65841523 C12.5250421,5.61851322 13.7254569,3.13527072 15.4766599,3.00512389 C15.5243612,3.00163965 15.5714561,3 15.6183489,3 Z M15.6362655,4.04976 C15.6124979,4.04976 15.5887304,4.05056132 15.5649628,4.05256463 C14.4381566,4.14091034 13.6255686,6.24317773 13.7896957,8.64293578 C13.8595011,9.66442058 14.096428,10.6292119 14.4630471,11.39808 C14.9689027,11.2726732 15.501146,11.1877331 16.0500453,11.1448624 C16.5946402,11.102192 17.1384866,11.1031936 17.6546353,11.148268 C17.9127096,10.3309199 18.0162014,9.33928431 17.9463959,8.3169982 C17.7719758,5.76458836 16.6114834,4.04976 15.6362655,4.04976 Z" id="path-1"></path>
    </defs>
    <g id="icon/walk" stroke="none" stroke-width="1" fill="none" fill-rule="evenodd">
        <mask id="mask-2" fill="white">
            <use xlink:href="#path-1"></use>
        </mask>
        <use id="walk" fill="#CA02A2" fill-rule="nonzero" xlink:href="#path-1"></use>
    </g>
</svg>