<?xml version="1.0" encoding="UTF-8"?>
<svg width="48px" height="48px" viewBox="0 0 48 48" version="1.1" xmlns="http://www.w3.org/2000/svg" xmlns:xlink="http://www.w3.org/1999/xlink">
    <title>icon/water-fountain/48</title>
    <g id="icon/water-fountain/48" stroke="none" stroke-width="1" fill="none" fill-rule="evenodd">
        <g id="Group" transform="translate(4.000000, 4.000000)">
            <rect id="Rectangle-8" fill="#FFF7E1" x="5.45454545" y="1.72252784e-14" width="34.2060606" height="34.2060606" rx="8.04848485"></rect>
            <g id="noun_Drinking-Fountain_29" transform="translate(0.000000, 2.424242)">
                <path d="M20.1051222,0.666661962 C19.2453258,0.669896319 18.4631281,1.02110048 17.8973227,1.58707294 C17.3324956,2.15206687 16.9833783,2.93117475 16.9838393,3.79121592 C16.9833782,4.65495463 17.3322476,5.43576774 17.8973022,6.00076659 C18.4624861,6.56589467 19.2438093,6.91498667 20.1076267,6.91498667 C20.9672463,6.91498667 21.7460563,6.56558776 22.3110083,6.00080264 C22.8769919,5.43498627 23.2284692,4.65302198 23.2321661,3.78872182 C23.2284702,2.93311705 22.8767486,2.15285333 22.3109879,1.58703691 C21.7454091,1.02140247 20.9657197,0.669894976 20.1051222,0.666661962 Z" id="Path" stroke="#030303" stroke-width="1.33333333" fill="#FFFFFF" fill-rule="nonzero"></path>
                <path d="M15.9137067,7.68357333 C15.9031625,6.7655509 15.224179,5.90838342 14.3758778,5.39276135 C13.572007,4.90414541 12.5689234,4.69773766 11.7217565,5.13155102 L2.67376498,10.0089082 C1.69082069,10.5775351 0.670112039,11.6510983 0.666662839,12.6689258 L0.666666667,34.3333333 C0.667409095,35.0748202 0.919778679,35.6492324 1.32876829,36.0428556 C1.80652649,36.5026637 2.4779252,36.7148405 3.14267369,36.7028978 C3.80858019,36.6909343 4.47827794,36.4536333 4.95394064,35.9746201 C5.36250227,35.5631806 5.61527278,34.9742008 5.6149334,34.2207803 L5.71765056,16.6293531 L12.1540222,11.7040979 L13.0030401,15.9491873 C12.9397142,16.4636241 13.8842157,17.2905117 14.1111275,17.5028068 L17.8058765,20.6363335 C18.0711983,20.9125998 18.3600983,21.0535088 18.644016,21.0675333 C18.9483193,21.0825647 19.2336189,20.9560342 19.4492919,20.7585486 C19.6721028,20.5545271 19.826459,20.2701801 19.8394756,19.9598989 C19.8509684,19.6859396 19.7454911,19.4004377 19.509449,19.1359676 L15.9137067,15.1578702 L15.9137067,7.68357333 Z" id="Path" stroke="#030303" stroke-width="1.33333333" fill="#FFFFFF" fill-rule="nonzero"></path>
                <path d="M19.5961851,13.1178485 C19.3669739,13.1178035 19.1663041,13.1655976 18.6473288,14.0593077 C18.6820291,14.2307982 18.7729976,14.3976859 18.9153705,14.5453753 L26.3009574,21.9611341 C26.5244344,22.1855288 26.8295332,22.3094313 27.1461868,22.3043869 L34.9646983,22.1798361 L34.9646983,13.1641593 L19.5961851,13.1178485 Z" id="Path" stroke="#000000" stroke-width="1.66666667" fill="#B5EDEA" fill-rule="nonzero"></path>
                <path d="M22.01312,11.7988267 C22.26512,11.7962133 22.47232,11.58864 22.4794133,11.3325333 C22.47232,11.0764267 22.26512,10.8692267 22.01312,10.8658667 C21.7540267,10.8696 21.5468267,11.0764267 21.5468267,11.3325333 C21.5468267,11.58864 21.7536533,11.7962133 22.01312,11.7988267 L22.01312,11.7988267 Z" id="Path" fill="#0EB7BF" fill-rule="nonzero"></path>
                <path d="M23.2499733,11.8794667 C23.5053333,11.87648 23.71216,11.66928 23.7162667,11.41392 C23.71216,11.1581867 23.5053333,10.9506133 23.2499733,10.9472533 C22.9934933,10.9509867 22.7862933,11.15856 22.7833067,11.41392 C22.7862933,11.66928 22.9938667,11.87648 23.2499733,11.8794667 L23.2499733,11.8794667 Z" id="Path" fill="#0EB7BF" fill-rule="nonzero"></path>
                <path d="M23.3309867,10.5018667 C23.5848533,10.50784 23.79168,10.3002667 23.79728,10.0549867 C23.79168,9.78954667 23.5848533,9.58309333 23.3309867,9.58832 C23.07376,9.58272 22.86656,9.78954667 22.8646933,10.0549867 C22.86656,10.3002667 23.07376,10.50784 23.3309867,10.5018667 L23.3309867,10.5018667 Z" id="Path" fill="#0EB7BF" fill-rule="nonzero"></path>
                <path d="M22.0945067,10.4197333 C22.3498667,10.42272 22.5566933,10.2147733 22.5611733,9.95381333 C22.5566933,9.70368 22.3498667,9.49648 22.0945067,9.48714667 C21.8384,9.49648 21.6312,9.70368 21.6285867,9.95381333 C21.6312,10.2147733 21.8387733,10.42272 22.0945067,10.4197333 L22.0945067,10.4197333 Z" id="Path" fill="#0EB7BF" fill-rule="nonzero"></path>
                <path d="M22.4999467,9.16346667 C22.7631467,9.15376 22.9811733,8.93610667 22.9867733,8.67664 C22.9811733,8.39925333 22.7631467,8.18122667 22.4999467,8.19018667 C22.2266667,8.18122667 22.0093867,8.39925333 22.0127467,8.67664 C22.0093867,8.93610667 22.2266667,9.15376 22.4999467,9.16346667 L22.4999467,9.16346667 Z" id="Path" fill="#0EB7BF" fill-rule="nonzero"></path>
                <path d="M24.0003733,9.40688 C24.2702933,9.39642667 24.48832,9.17914667 24.4868343,8.91930667 C24.48832,8.64192 24.2702933,8.42389333 24.0003733,8.43397333 C23.73344,8.42426667 23.5157867,8.64192 23.51392,8.91930667 C23.5157867,9.17914667 23.73344,9.39642667 24.0003733,9.40688 L24.0003733,9.40688 Z" id="Path" fill="#0EB7BF" fill-rule="nonzero"></path>
                <path d="M23.4739733,8.14912 C23.7483733,8.14352 23.9772267,7.91578667 23.9802133,7.64325333 C23.9768533,7.35168 23.7483733,7.12282667 23.4739733,7.11536 C23.18464,7.12282667 22.9565333,7.35168 22.9666133,7.64325333 C22.9565333,7.91616 23.1842667,8.14352 23.4739733,8.14912 L23.4739733,8.14912 Z" id="Path" fill="#0EB7BF" fill-rule="nonzero"></path>
                <path d="M25.2159467,8.96037333 C25.4937067,8.95477333 25.72144,8.72592 25.7229333,8.45338667 C25.72144,8.16181333 25.4937067,7.93370667 25.2159467,7.92698667 C24.9296,7.93408 24.7007467,8.16181333 24.7097067,8.45338667 C24.7007467,8.72592 24.9296,8.95514667 25.2159467,8.96037333 L25.2159467,8.96037333 Z" id="Path" fill="#0EB7BF" fill-rule="nonzero"></path>
                <path d="M24.6488533,7.70373333 C24.9378133,7.69738667 25.1666667,7.46965333 25.1767467,7.19637333 C25.1666667,6.90592 24.9378133,6.67669333 24.6488533,6.66997333 C24.3748267,6.67706667 24.1448533,6.90592 24.14224,7.19637333 C24.1452267,7.46965333 24.3748267,7.69776 24.6488533,7.70373333 L24.6488533,7.70373333 Z" id="Path" fill="#0EB7BF" fill-rule="nonzero"></path>
                <path d="M26.0275733,7.70373333 C26.3434133,7.7 26.5954133,7.44725333 26.5954133,7.13589333 C26.5954133,6.82677333 26.3434133,6.5744 26.0275733,6.56805333 C25.7218133,6.57477333 25.4698133,6.82677333 25.4597333,7.13589333 C25.4698133,7.44725333 25.72144,7.7 26.0275733,7.70373333 L26.0275733,7.70373333 Z" id="Path" fill="#0EB7BF" fill-rule="nonzero"></path>
                <path d="M26.4733333,9.44757333 C26.7790933,9.44309333 27.0310933,9.19072 27.0404267,8.88010667 C27.0314667,8.56986667 26.7794667,8.31749333 26.4733333,8.31226667 C26.1574933,8.31786667 25.90624,8.56986667 25.90624,8.88010667 C25.90624,9.19072 26.1574933,9.44272 26.4733333,9.44757333 L26.4733333,9.44757333 Z" id="Path" fill="#0EB7BF" fill-rule="nonzero"></path>
                <path d="M27.32416,8.37312 C27.6560533,8.36565333 27.9203733,8.10170667 27.9129067,7.78437333 C27.9203733,7.44949333 27.6560533,7.18517333 27.32416,7.17696 C27.0034667,7.18517333 26.7387733,7.44949333 26.73728,7.78437333 C26.7387733,8.10170667 27.0034667,8.36565333 27.32416,8.37312 L27.32416,8.37312 Z" id="Path" fill="#0EB7BF" fill-rule="nonzero"></path>
                <path d="M28.45984,9.50805333 C28.80144,9.51029333 29.0792,9.23253333 29.0889067,8.89952 C29.0795733,8.54746667 28.80144,8.27045333 28.45984,8.27194066 C28.116,8.27045333 27.8386133,8.54746667 27.83152,8.89952 C27.8386133,9.23253333 28.116,9.51029333 28.45984,9.50805333 L28.45984,9.50805333 Z" id="Path" fill="#0EB7BF" fill-rule="nonzero"></path>
                <path d="M27.3853867,10.6022933 C27.73072,10.6045333 28.00736,10.32752 28.0148267,9.99450667 C28.00736,9.64282667 27.73072,9.36394667 27.3853867,9.36618667 C27.0449067,9.36394667 26.7671467,9.64282667 26.7783467,9.99450667 C26.7671467,10.32752 27.0449067,10.6045333 27.3853867,10.6022933 L27.3853867,10.6022933 Z" id="Path" fill="#0EB7BF" fill-rule="nonzero"></path>
                <path d="M30.3333333,23 L30.3333333,27.3636364 C30.3333333,28.4545455 30.8888889,29 32,29 C33.1111111,29 33.6666667,28.4545455 33.6666667,27.3636364 L33.6666667,25.8 C33.6666667,25.726362 33.726362,25.6666667 33.8,25.6666667 L35,25.6666667 L35,25.6666667" id="Path-10" stroke="#000000" stroke-width="1.66666667" stroke-linecap="round"></path>
            </g>
        </g>
    </g>
</svg>