<?xml version="1.0" encoding="UTF-8"?>
<svg width="386px" height="264px" viewBox="0 0 386 264" version="1.1" xmlns="http://www.w3.org/2000/svg" xmlns:xlink="http://www.w3.org/1999/xlink">
    <title>illustration/web-form/about</title>
    <g id="illustration/web-form/about" stroke="none" stroke-width="1" fill="none" fill-rule="evenodd">
        <g id="Group-3" transform="translate(0.000000, 17.000000)">
            <g id="Illustration_onboarding_1">
                <path d="M193,0 C299.590957,0 386,86.4090433 386,193 C386,193.460302 385.998389,193.920227 385.995171,194.379771 L0.011,194.378 L0,193 C0,87.4749529 84.6895033,1.73019906 189.808392,0.0258564859 Z" id="Combined-Shape" fill="#DAFFFD"></path>
                <g id="Group-2" transform="translate(12.407143, 103.392857)">
                    <polygon id="Path-7" fill="#FFE4C7" points="82.7142857 92.3642857 82.7142857 62.4163646 105.460714 43.425 128.207143 60.2250533 128.207143 92.3642857"></polygon>
                    <polygon id="Path-Copy" fill="#FCDAE3" points="2.75714286 91.9507101 2.75714286 3.03285294 31.7071429 3.03285294 33.0857143 91.9507101"></polygon>
                    <polygon id="Path-6" fill="#E9F0F0" points="40.6678571 39.9785714 70.9964286 39.9785714 70.9964286 92.3642857 40.6678571 92.3642857"></polygon>
                    <path d="M96.3251184,62.0357143 L90.8872449,62.0357143 C90.1806286,62.0357143 89.6071429,62.6104254 89.6071429,63.3185516 L89.6071429,70.968367 C89.6071429,71.6764932 90.1806286,72.2512043 90.8872449,72.2512043 C91.5938612,72.2512043 92.1673469,71.6764932 92.1673469,70.968367 L92.1673469,64.6013889 L95.0450163,64.6013889 L95.0450163,70.968367 C95.0450163,71.6764932 95.618502,72.2512043 96.3251184,72.2512043 C97.0317347,72.2512043 97.6052204,71.6764932 97.6052204,70.968367 L97.6052204,63.3185516 C97.6052204,62.6093991 97.0317347,62.0357143 96.3251184,62.0357143 Z" id="Shape-Copy" fill="#030303" fill-rule="nonzero"></path>
                    <path d="M13.6108327,8.27142857 L8.17295918,8.27142857 C7.46634286,8.27142857 6.89285714,8.84613968 6.89285714,9.55426587 L6.89285714,17.2071601 C6.89285714,17.9152863 7.46634286,18.4899974 8.17295918,18.4899974 C8.87957551,18.4899974 9.45306122,17.9152863 9.45306122,17.2071601 L9.45306122,10.8371032 L12.3307306,10.8371032 L12.3307306,17.2071601 C12.3307306,17.9152863 12.9042163,18.4899974 13.6108327,18.4899974 C14.317449,18.4899974 14.8909347,17.9152863 14.8909347,17.2071601 L14.8909347,9.55426587 C14.8909347,8.84613968 14.317449,8.27142857 13.6108327,8.27142857 Z" id="Shape" fill="#030303" fill-rule="nonzero"></path>
                    <path d="M13.6108327,26.1928571 L8.17295918,26.1928571 C7.46634286,26.1928571 6.89285714,26.7675683 6.89285714,27.4756944 L6.89285714,35.1255098 C6.89285714,35.833636 7.46634286,36.4083471 8.17295918,36.4083471 C8.87957551,36.4083471 9.45306122,35.833636 9.45306122,35.1255098 L9.45306122,28.7585317 L12.3307306,28.7585317 L12.3307306,35.1255098 C12.3307306,35.833636 12.9042163,36.4083471 13.6108327,36.4083471 C14.317449,36.4083471 14.8909347,35.833636 14.8909347,35.1255098 L14.8909347,27.4756944 C14.8909347,26.7675683 14.317449,26.1928571 13.6108327,26.1928571 Z" id="Shape" fill="#030303" fill-rule="nonzero"></path>
                    <path d="M13.6108327,44.1142857 L8.17295918,44.1142857 C7.46634286,44.1142857 6.89285714,44.6889968 6.89285714,45.397123 L6.89285714,53.0479647 C6.89285714,53.7560909 7.46634286,54.330802 8.17295918,54.330802 C8.87957551,54.330802 9.45306122,53.7560909 9.45306122,53.0479647 L9.45306122,46.6799603 L12.3307306,46.6799603 L12.3307306,53.0479647 C12.3307306,53.7560909 12.9042163,54.330802 13.6108327,54.330802 C14.317449,54.330802 14.8909347,53.7560909 14.8909347,53.0479647 L14.8909347,45.397123 C14.8909347,44.6879706 14.317449,44.1142857 13.6108327,44.1142857 Z" id="Shape" fill="#030303" fill-rule="nonzero"></path>
                    <path d="M13.6108327,62.0357143 L8.17295918,62.0357143 C7.46634286,62.0357143 6.89285714,62.6104254 6.89285714,63.3185516 L6.89285714,70.968367 C6.89285714,71.6764932 7.46634286,72.2512043 8.17295918,72.2512043 C8.87957551,72.2512043 9.45306122,71.6764932 9.45306122,70.968367 L9.45306122,64.6013889 L12.3307306,64.6013889 L12.3307306,70.968367 C12.3307306,71.6764932 12.9042163,72.2512043 13.6108327,72.2512043 C14.317449,72.2512043 14.8909347,71.6764932 14.8909347,70.968367 L14.8909347,63.3185516 C14.8909347,62.6093991 14.317449,62.0357143 13.6108327,62.0357143 Z" id="Shape" fill="#030303" fill-rule="nonzero"></path>
                    <path d="M26.0169514,8.27142857 L20.580102,8.27142857 C19.8734857,8.27142857 19.3,8.84613968 19.3,9.55426587 L19.3,17.2071601 C19.3,17.9152863 19.8734857,18.4899974 20.580102,18.4899974 C21.2867184,18.4899974 21.8602041,17.9152863 21.8602041,17.2071601 L21.8602041,10.8371032 L24.7368494,10.8371032 L24.7368494,17.2071601 C24.7368494,17.9152863 25.3103351,18.4899974 26.0169514,18.4899974 C26.7235678,18.4899974 27.2970535,17.9152863 27.2970535,17.2071601 L27.2970535,9.55426587 C27.2970535,8.84613968 26.7245918,8.27142857 26.0169514,8.27142857 Z" id="Shape" fill="#030303" fill-rule="nonzero"></path>
                    <path d="M26.0169514,26.1928571 L20.580102,26.1928571 C19.8734857,26.1928571 19.3,26.7675683 19.3,27.4756944 L19.3,35.1255098 C19.3,35.833636 19.8734857,36.4083471 20.580102,36.4083471 C21.2867184,36.4083471 21.8602041,35.833636 21.8602041,35.1255098 L21.8602041,28.7585317 L24.7368494,28.7585317 L24.7368494,35.1255098 C24.7368494,35.833636 25.3103351,36.4083471 26.0169514,36.4083471 C26.7235678,36.4083471 27.2970535,35.833636 27.2970535,35.1255098 L27.2970535,27.4756944 C27.2970535,26.7675683 26.7245918,26.1928571 26.0169514,26.1928571 Z" id="Shape" fill="#030303" fill-rule="nonzero"></path>
                    <path d="M26.0169514,44.1142857 L20.580102,44.1142857 C19.8734857,44.1142857 19.3,44.6889968 19.3,45.397123 L19.3,53.0479647 C19.3,53.7560909 19.8734857,54.330802 20.580102,54.330802 C21.2867184,54.330802 21.8602041,53.7560909 21.8602041,53.0479647 L21.8602041,46.6799603 L24.7368494,46.6799603 L24.7368494,53.0479647 C24.7368494,53.7560909 25.3103351,54.330802 26.0169514,54.330802 C26.7235678,54.330802 27.2970535,53.7560909 27.2970535,53.0479647 L27.2970535,45.397123 C27.2970535,44.6879706 26.7245918,44.1142857 26.0169514,44.1142857 Z" id="Shape" fill="#030303" fill-rule="nonzero"></path>
                    <path d="M26.0169514,62.0357143 L20.580102,62.0357143 C19.8734857,62.0357143 19.3,62.6104254 19.3,63.3185516 L19.3,70.968367 C19.3,71.6764932 19.8734857,72.2512043 20.580102,72.2512043 C21.2867184,72.2512043 21.8602041,71.6764932 21.8602041,70.968367 L21.8602041,64.6013889 L24.7368494,64.6013889 L24.7368494,70.968367 C24.7368494,71.6764932 25.3103351,72.2512043 26.0169514,72.2512043 C26.7235678,72.2512043 27.2970535,71.6764932 27.2970535,70.968367 L27.2970535,63.3185516 C27.2970535,62.6093991 26.7245918,62.0357143 26.0169514,62.0357143 Z" id="Shape" fill="#030303" fill-rule="nonzero"></path>
                    <path d="M70.3071429,91.675 L82.025,91.675 C82.405682,91.675 82.7142857,91.3663963 82.7142857,90.9857143 L82.7142857,60.997769 C82.7142857,60.7830769 82.8143224,60.5806442 82.9848647,60.4502295 L105.737306,43.0513036 C105.981622,42.8644736 106.320155,42.8621152 106.567051,43.0455233 L129.996752,60.4504443 C130.171807,60.5804851 130.275,60.7856934 130.275,61.0037641 L130.275,90.9857143 L130.275,90.9857143" id="Path-3" stroke="#030303" stroke-width="3.03285714" stroke-linecap="round"></path>
                    <path d="M69.9877869,37.3623798 L39.3493127,37.3623798 C38.5013731,37.3623798 37.8131902,38.0510069 37.8131902,38.9017846 L37.8131902,90.2964286 L33.8725241,90.2964286 L33.8725241,1.71592317 C33.8725241,0.865145476 33.1853653,0.176518413 32.3364016,0.176518413 L1.69792735,0.176518413 C0.848963673,0.176518413 0.161804898,0.865145476 0.161804898,1.71592317 L0.161804898,90.6483625 C0.161804898,91.498114 0.848963673,92.1877673 1.69792735,92.1877673 C2.54689102,92.1877673 3.2340498,91.498114 3.2340498,90.6483625 L3.2340498,3.25532794 L30.8002792,3.25532794 L30.8002792,90.6483625 C30.8002792,91.498114 31.487438,92.1877673 32.3364016,92.1877673 L39.3493127,92.1877673 C40.1972522,92.1877673 40.8854351,91.498114 40.8854351,90.6483625 L40.8854351,40.4411894 L68.4516645,40.4411894 L68.4516645,90.6483625 C68.4516645,91.498114 69.1398473,92.1877673 69.9877869,92.1877673 C70.8357265,92.1877673 71.5239094,91.498114 71.5239094,90.6483625 L71.5239094,38.9017846 C71.5239094,38.0520332 70.8357265,37.3623798 69.9877869,37.3623798 Z" id="Shape" fill="#030303" fill-rule="nonzero"></path>
                    <path d="M50.8312371,44.1142857 L45.3943878,44.1142857 C44.6877714,44.1142857 44.1142857,44.6889968 44.1142857,45.397123 L44.1142857,53.0479647 C44.1142857,53.7560909 44.6877714,54.330802 45.3943878,54.330802 C46.1010041,54.330802 46.6744898,53.7560909 46.6744898,53.0479647 L46.6744898,46.6799603 L49.5511351,46.6799603 L49.5511351,53.0479647 C49.5511351,53.7560909 50.1246208,54.330802 50.8312371,54.330802 C51.5378535,54.330802 52.1113392,53.7560909 52.1113392,53.0479647 L52.1113392,45.397123 C52.1113392,44.6879706 51.5388776,44.1142857 50.8312371,44.1142857 Z" id="Shape" fill="#030303" fill-rule="nonzero"></path>
                    <path d="M50.8312371,62.0357143 L45.3943878,62.0357143 C44.6877714,62.0357143 44.1142857,62.6104254 44.1142857,63.3185516 L44.1142857,70.968367 C44.1142857,71.6764932 44.6877714,72.2512043 45.3943878,72.2512043 C46.1010041,72.2512043 46.6744898,71.6764932 46.6744898,70.968367 L46.6744898,64.6013889 L49.5511351,64.6013889 L49.5511351,70.968367 C49.5511351,71.6764932 50.1246208,72.2512043 50.8312371,72.2512043 C51.5378535,72.2512043 52.1113392,71.6764932 52.1113392,70.968367 L52.1113392,63.3185516 C52.1113392,62.6093991 51.5388776,62.0357143 50.8312371,62.0357143 Z" id="Shape" fill="#030303" fill-rule="nonzero"></path>
                    <path d="M63.2394041,44.1142857 L57.8015306,44.1142857 C57.0949143,44.1142857 56.5214286,44.6889968 56.5214286,45.397123 L56.5214286,53.0479647 C56.5214286,53.7560909 57.0949143,54.330802 57.8015306,54.330802 C58.5081469,54.330802 59.0816327,53.7560909 59.0816327,53.0479647 L59.0816327,46.6799603 L61.959302,46.6799603 L61.959302,53.0479647 C61.959302,53.7560909 62.5327878,54.330802 63.2394041,54.330802 C63.9460204,54.330802 64.5195061,53.7560909 64.5195061,53.0479647 L64.5195061,45.397123 C64.5195061,44.6879706 63.9460204,44.1142857 63.2394041,44.1142857 Z" id="Shape" fill="#030303" fill-rule="nonzero"></path>
                    <path d="M63.2394041,62.0357143 L57.8015306,62.0357143 C57.0949143,62.0357143 56.5214286,62.6104254 56.5214286,63.3185516 L56.5214286,70.968367 C56.5214286,71.6764932 57.0949143,72.2512043 57.8015306,72.2512043 C58.5081469,72.2512043 59.0816327,71.6764932 59.0816327,70.968367 L59.0816327,64.6013889 L61.959302,64.6013889 L61.959302,70.968367 C61.959302,71.6764932 62.5327878,72.2512043 63.2394041,72.2512043 C63.9460204,72.2512043 64.5195061,71.6764932 64.5195061,70.968367 L64.5195061,63.3185516 C64.5195061,62.6093991 63.9460204,62.0357143 63.2394041,62.0357143 Z" id="Shape" fill="#030303" fill-rule="nonzero"></path>
                </g>
                <g id="Group" transform="translate(253.657143, 103.668567)">
                    <polyline id="Path-5" fill="#E9F0F0" points="33.775 92.1877673 2.75714286 92.1877673 2.75714286 54.1778613 33.0857143 54.1778613 33.0857143 91.4705993"></polyline>
                    <polygon id="Path-2" fill="#FFE4C7" points="79.2678571 92.1877673 79.2678571 49.1504572 51.0071429 39.9785714 51.0071429 92.1877673"></polygon>
                    <polygon id="Path" fill="#FCDAE3" points="88.2285714 91.675 88.2285714 2.75714286 117.178571 2.75714286 118.557143 91.675"></polygon>
                    <path d="M99.6373922,6.82879952 L94.1995188,6.82879952 C93.4929024,6.82879952 92.9194167,7.40351063 92.9194167,8.11163683 L92.9194167,15.764531 C92.9194167,16.4726572 93.4929024,17.0473683 94.1995188,17.0473683 C94.9061351,17.0473683 95.4796208,16.4726572 95.4796208,15.764531 L95.4796208,9.39447413 L98.3572902,9.39447413 L98.3572902,15.764531 C98.3572902,16.4726572 98.9307759,17.0473683 99.6373922,17.0473683 C100.344009,17.0473683 100.917494,16.4726572 100.917494,15.764531 L100.917494,8.11163683 C100.917494,7.40351063 100.344009,6.82879952 99.6373922,6.82879952 Z" id="Shape" fill="#030303" fill-rule="nonzero"></path>
                    <path d="M99.6373922,25.424809 L94.1995188,25.424809 C93.4929024,25.424809 92.9194167,25.9995202 92.9194167,26.7076463 L92.9194167,34.3574617 C92.9194167,35.0655879 93.4929024,35.640299 94.1995188,35.640299 C94.9061351,35.640299 95.4796208,35.0655879 95.4796208,34.3574617 L95.4796208,27.9904837 L98.3572902,27.9904837 L98.3572902,34.3574617 C98.3572902,35.0655879 98.9307759,35.640299 99.6373922,35.640299 C100.344009,35.640299 100.917494,35.0655879 100.917494,34.3574617 L100.917494,26.7076463 C100.917494,25.9995202 100.344009,25.424809 99.6373922,25.424809 Z" id="Shape" fill="#030303" fill-rule="nonzero"></path>
                    <path d="M61.8608327,62.0357143 L56.4229592,62.0357143 C55.7163429,62.0357143 55.1428571,62.6104254 55.1428571,63.3185516 L55.1428571,70.968367 C55.1428571,71.6764932 55.7163429,72.2512043 56.4229592,72.2512043 C57.1295755,72.2512043 57.7030612,71.6764932 57.7030612,70.968367 L57.7030612,64.6013889 L60.5807306,64.6013889 L60.5807306,70.968367 C60.5807306,71.6764932 61.1542163,72.2512043 61.8608327,72.2512043 C62.567449,72.2512043 63.1409347,71.6764932 63.1409347,70.968367 L63.1409347,63.3185516 C63.1409347,62.6093991 62.567449,62.0357143 61.8608327,62.0357143 Z" id="Shape" fill="#030303" fill-rule="nonzero"></path>
                    <path d="M27.3965469,62.0357143 L21.9586735,62.0357143 C21.2520571,62.0357143 20.6785714,62.6104254 20.6785714,63.3185516 L20.6785714,70.968367 C20.6785714,71.6764932 21.2520571,72.2512043 21.9586735,72.2512043 C22.6652898,72.2512043 23.2387755,71.6764932 23.2387755,70.968367 L23.2387755,64.6013889 L26.1164449,64.6013889 L26.1164449,70.968367 C26.1164449,71.6764932 26.6899306,72.2512043 27.3965469,72.2512043 C28.1031633,72.2512043 28.676649,71.6764932 28.676649,70.968367 L28.676649,63.3185516 C28.676649,62.6093991 28.1031633,62.0357143 27.3965469,62.0357143 Z" id="Shape-Copy-2" fill="#030303" fill-rule="nonzero"></path>
                    <path d="M112.116851,6.82879952 L106.680002,6.82879952 C105.973385,6.82879952 105.3999,7.40351063 105.3999,8.11163683 L105.3999,15.764531 C105.3999,16.4726572 105.973385,17.0473683 106.680002,17.0473683 C107.386618,17.0473683 107.960104,16.4726572 107.960104,15.764531 L107.960104,9.39447413 L110.836749,9.39447413 L110.836749,15.764531 C110.836749,16.4726572 111.410235,17.0473683 112.116851,17.0473683 C112.823467,17.0473683 113.396953,16.4726572 113.396953,15.764531 L113.396953,8.11163683 C113.396953,7.40351063 112.824491,6.82879952 112.116851,6.82879952 Z" id="Shape" fill="#030303" fill-rule="nonzero"></path>
                    <path d="M112.116851,25.424809 L106.680002,25.424809 C105.973385,25.424809 105.3999,25.9995202 105.3999,26.7076463 L105.3999,34.3574617 C105.3999,35.0655879 105.973385,35.640299 106.680002,35.640299 C107.386618,35.640299 107.960104,35.0655879 107.960104,34.3574617 L107.960104,27.9904837 L110.836749,27.9904837 L110.836749,34.3574617 C110.836749,35.0655879 111.410235,35.640299 112.116851,35.640299 C112.823467,35.640299 113.396953,35.0655879 113.396953,34.3574617 L113.396953,26.7076463 C113.396953,25.9995202 112.824491,25.424809 112.116851,25.424809 Z" id="Shape" fill="#030303" fill-rule="nonzero"></path>
                    <path d="M74.2669514,62.0357143 L68.830102,62.0357143 C68.1234857,62.0357143 67.55,62.6104254 67.55,63.3185516 L67.55,70.968367 C67.55,71.6764932 68.1234857,72.2512043 68.830102,72.2512043 C69.5367184,72.2512043 70.1102041,71.6764932 70.1102041,70.968367 L70.1102041,64.6013889 L72.9868494,64.6013889 L72.9868494,70.968367 C72.9868494,71.6764932 73.5603351,72.2512043 74.2669514,72.2512043 C74.9735678,72.2512043 75.5470535,71.6764932 75.5470535,70.968367 L75.5470535,63.3185516 C75.5470535,62.6093991 74.9745918,62.0357143 74.2669514,62.0357143 Z" id="Shape" fill="#030303" fill-rule="nonzero"></path>
                    <path d="M118.237787,37.3623798 L87.5993127,46.8714286 C86.85,46.8714286 86.0631902,47.5607143 86.0631902,48.9392857 C86.0631902,49.8583333 86.0631902,63.248224 86.0631902,89.1089578 L82.1225241,89.1089578 L82.1225241,1.71592317 C82.1225241,0.865145476 81.4353653,0.176518413 80.5864016,0.176518413 L49.9479273,0.176518413 C49.0989637,0.176518413 48.4118049,0.865145476 48.4118049,1.71592317 L48.4118049,90.6483625 C48.4118049,91.498114 49.0989637,92.1877673 49.9479273,92.1877673 C50.796891,92.1877673 51.4840498,91.498114 51.4840498,90.6483625 L51.4840498,3.25532794 L79.0502792,3.25532794 L79.0502792,90.6483625 C79.0502792,91.498114 79.737438,92.1877673 80.5864016,92.1877673 L87.5993127,92.1877673 C88.4472522,92.1877673 89.1354351,91.498114 89.1354351,90.6483625 L89.1354351,48.9392857 L116.701664,40.4411894 L116.701664,90.6483625 C116.701664,91.498114 117.389847,92.1877673 118.237787,92.1877673 C119.085727,92.1877673 119.773909,91.498114 119.773909,90.6483625 L119.773909,38.9017846 C119.773909,38.0520332 119.085727,37.3623798 118.237787,37.3623798 Z" id="Shape" fill="#030303" fill-rule="nonzero" transform="translate(84.092857, 46.182143) scale(-1, 1) translate(-84.092857, -46.182143) "></path>
                    <path d="M99.3967331,44.0197923 L93.9598837,44.0197923 C93.2532673,44.0197923 92.6797816,44.5945034 92.6797816,45.3026296 L92.6797816,52.9534713 C92.6797816,53.6615975 93.2532673,54.2363086 93.9598837,54.2363086 C94.6665,54.2363086 95.2399857,53.6615975 95.2399857,52.9534713 L95.2399857,46.5854669 L98.116631,46.5854669 L98.116631,52.9534713 C98.116631,53.6615975 98.6901167,54.2363086 99.3967331,54.2363086 C100.103349,54.2363086 100.676835,53.6615975 100.676835,52.9534713 L100.676835,45.3026296 C100.676835,44.5934771 100.104373,44.0197923 99.3967331,44.0197923 Z" id="Shape" fill="#030303" fill-rule="nonzero"></path>
                    <path d="M99.3967331,62.6147756 L93.9598837,62.6147756 C93.2532673,62.6147756 92.6797816,63.1894867 92.6797816,63.8976129 L92.6797816,71.5474283 C92.6797816,72.2555544 93.2532673,72.8302656 93.9598837,72.8302656 C94.6665,72.8302656 95.2399857,72.2555544 95.2399857,71.5474283 L95.2399857,65.1804502 L98.116631,65.1804502 L98.116631,71.5474283 C98.116631,72.2555544 98.6901167,72.8302656 99.3967331,72.8302656 C100.103349,72.8302656 100.676835,72.2555544 100.676835,71.5474283 L100.676835,63.8976129 C100.676835,63.1884604 100.104373,62.6147756 99.3967331,62.6147756 Z" id="Shape" fill="#030303" fill-rule="nonzero"></path>
                    <path d="M111.877216,44.0197923 L106.439342,44.0197923 C105.732726,44.0197923 105.15924,44.5945034 105.15924,45.3026296 L105.15924,52.9534713 C105.15924,53.6615975 105.732726,54.2363086 106.439342,54.2363086 C107.145959,54.2363086 107.719444,53.6615975 107.719444,52.9534713 L107.719444,46.5854669 L110.597114,46.5854669 L110.597114,52.9534713 C110.597114,53.6615975 111.1706,54.2363086 111.877216,54.2363086 C112.583832,54.2363086 113.157318,53.6615975 113.157318,52.9534713 L113.157318,45.3026296 C113.157318,44.5934771 112.583832,44.0197923 111.877216,44.0197923 Z" id="Shape" fill="#030303" fill-rule="nonzero"></path>
                    <path d="M111.877216,62.6147756 L106.439342,62.6147756 C105.732726,62.6147756 105.15924,63.1894867 105.15924,63.8976129 L105.15924,71.5474283 C105.15924,72.2555544 105.732726,72.8302656 106.439342,72.8302656 C107.145959,72.8302656 107.719444,72.2555544 107.719444,71.5474283 L107.719444,65.1804502 L110.597114,65.1804502 L110.597114,71.5474283 C110.597114,72.2555544 111.1706,72.8302656 111.877216,72.8302656 C112.583832,72.8302656 113.157318,72.2555544 113.157318,71.5474283 L113.157318,63.8976129 C113.157318,63.1884604 112.583832,62.6147756 111.877216,62.6147756 Z" id="Shape" fill="#030303" fill-rule="nonzero"></path>
                    <polyline id="Path-4" stroke="#030303" stroke-width="3.03285714" points="49.6285714 90.7100042 33.775 90.7100042 33.775 53.4885756 0 53.4885756"></polyline>
                </g>
                <line x1="1.37857143" y1="195.067857" x2="133.723214" y2="195.067857" id="Line-5" stroke="#030303" stroke-width="3.03285714" stroke-linecap="round"></line>
                <line x1="257.791014" y1="195.067857" x2="384.619586" y2="195.067857" id="Line-5-Copy" stroke="#030303" stroke-width="3.03285714" stroke-linecap="round"></line>
                <g id="Group" transform="translate(67.550000, 26.541537)" fill="#FFFFFF">
                    <path d="M229.893198,52.3857143 C223.115254,52.3857143 218.244029,57.9070212 218.105591,63.7975523 C213.964612,65.0128106 210.921429,68.7133184 210.921429,73.1593705 C210.921429,78.5874694 215.424825,82.9995183 220.965306,82.9995183 L247.74898,82.9995183 C253.667056,82.9995183 257.792857,79.1052252 257.792857,74.2527203 C257.792857,70.327376 255.068232,66.5149748 251.0446,65.6254691 C250.907389,62.4094902 249.346124,60.0076741 247.190987,58.7408097 C245.077588,57.4984911 242.467518,57.3473901 240.163732,58.2966364 C238.316719,55.0340261 234.678101,52.3857143 229.893198,52.3857143 Z" id="Path"></path>
                    <path d="M18.971769,0 C12.1938251,0 7.32260025,5.52130692 7.18416269,11.4118381 C3.04318358,12.6270963 0,16.3276041 0,20.7736563 C0,26.2017551 4.50339598,30.613804 10.0438778,30.613804 L36.8275513,30.613804 C42.7456271,30.613804 46.8714289,26.7195109 46.8714289,21.867006 C46.8714289,17.9416617 44.1468039,14.1292605 40.1231713,13.2397548 C39.9859608,10.0237759 38.4246958,7.6219598 36.2695581,6.35509544 C34.1561594,5.11277679 31.5460899,4.96167585 29.2423034,5.91092211 C27.3952901,2.64831177 23.7566723,0 18.971769,0 Z" id="Path-Copy-2"></path>
                    <path d="M15.2955783,57.9 C11.3085525,57.9 8.44312617,61.1321925 8.36169232,64.5805301 C5.92582226,65.2919466 4.13571429,67.4582369 4.13571429,70.0609714 C4.13571429,73.2385996 6.78477073,75.8214286 10.0438777,75.8214286 L25.7989796,75.8214286 C29.2802007,75.8214286 31.7071429,73.5416957 31.7071429,70.7010222 C31.7071429,68.4031119 30.1044223,66.1713188 27.7375796,65.6505991 C27.6568675,63.7679537 26.7384764,62.3619221 25.4707483,61.6202952 C24.2275727,60.8930375 22.6922376,60.8045825 21.3370691,61.3602746 C20.2505907,59.450331 18.1102273,57.9 15.2955783,57.9 Z" id="Path-Copy-3"></path>
                    <path d="M229.893197,53.6770587 C234.445027,53.6770587 237.845103,56.2746938 239.431421,59.3829778 C239.571241,59.651653 239.906717,59.7586663 240.181197,59.622148 C242.238518,58.6143529 244.703118,58.7439695 246.632993,59.8783745 C248.562868,61.0128343 249.980952,63.1375955 249.980952,66.2505809 C249.986124,66.5155826 250.184566,66.738781 250.451787,66.7801558 C254.107424,67.3811155 256.676871,70.8994603 256.676871,74.450715 C256.676871,78.7054309 253.179035,82.1041633 247.74898,82.1041633 L220.965306,82.1041633 C216.027903,82.1041633 212.037415,78.1945632 212.037415,73.3573652 C212.037415,69.2643011 214.901706,65.8430348 218.768208,64.8838937 C219.021078,64.8200426 219.19494,64.5929285 219.186703,64.3372188 C219.133693,58.9083 223.609134,53.6770587 229.893197,53.6770587 L229.893197,53.6770587 Z" id="Path"></path>
                </g>
            </g>
            <g id="IL_Very_Clean" transform="translate(124.071429, 88.228571)">
                <g transform="translate(0.000000, 0.524632)">
                    <rect id="Rectangle-2" fill="#0EB7BF" x="18.4239991" y="0.230299989" width="119.410544" height="119.410544" rx="28.2331429"></rect>
                    <path d="M106.290874,18.6542991 L94.4787132,18.6542991 C89.9507182,18.6542991 86.2102007,22.1979473 85.816462,26.5290729 L85.6195926,69.0528515 C84.4383766,68.4622435 83.0602911,67.8716354 81.6822057,67.8716354 L10.7657253,67.8716354 C4.91845,67.8716354 0.178296766,72.6117887 0.178296766,78.459064 C0.178296766,80.018808 0.178296766,81.578552 0.178296766,83.138296 C1.95012087,102.431492 17.1090605,118.467057 36.205387,120.829489 C35.8116483,122.404444 34.4335628,124.963746 30.4961759,124.963746 L18.6840152,124.963746 C13.9591509,124.963746 4.90316105,127.916786 4.90316105,138.7446 C4.90316105,139.831879 5.78457513,140.713293 6.87185451,140.713293 L93.9026105,140.713293 C95.8517023,140.713293 97.4317533,139.133242 97.4317533,137.18415 L97.4317533,109.748182 C97.4317669,108.201673 98.438656,106.835323 99.9157985,106.377348 C110.071929,103.228528 115.149994,96.2993711 115.149994,85.5898765 L114.953125,26.5290729 C114.362517,22.1979473 110.818869,18.6542991 106.290874,18.6542991 Z" id="Shape" stroke="#030303" stroke-width="3.52914286" fill="#030303" fill-rule="nonzero"></path>
                    <path d="M93.4943664,106.62955 L93.4943664,133.246763 C93.4943664,135.195855 91.9143154,136.775906 89.9652236,136.775906 L11.6463482,136.775906 C10.6718062,136.775899 9.88178378,135.985877 9.88178378,135.011335 C9.88178378,134.730988 9.94858136,134.454675 10.0766431,134.205287 C11.8924422,130.669184 14.7615662,128.901132 18.6840152,128.901132 L30.4961759,128.901132 C36.9928643,128.901132 39.5521658,124.373138 40.1427739,121.026359 C40.5365126,121.026359 40.9302512,121.026359 41.3239899,121.026359 C50.4511306,121.026359 58.9015778,118.034661 65.7512753,112.990471 C75.0058552,106.175299 81.338342,95.6133987 82.4696831,83.621183 C86.40707,83.2274444 89.5569795,79.8806655 89.5569795,75.7464092 L89.5569795,29.0604007 C89.5569795,25.1622171 92.7170817,22.002115 96.6152652,22.002115 L104.154322,22.002115 C108.052505,22.002115 111.212608,25.1622171 111.212608,29.0604007 L111.212608,85.5898765 L111.212608,85.5898765 C111.212608,96.1869648 106.351684,102.03115 96.6298377,103.122433 L96.6298372,103.122429 C94.8442941,103.322857 93.4943664,104.832793 93.4943664,106.62955 Z" id="Path" fill="#FFFFFF"></path>
                    <path d="M4.11568367,83.138296 L78.5322962,83.138296 C76.5636027,102.110732 60.6171858,117.088972 41.3239899,117.088972 C22.0307941,117.088972 6.08437712,102.110732 4.11568367,83.138296 Z" id="Path" fill="#E8FFF5"></path>
                    <path d="M7.70512207,71.8090223 L81.2802683,71.8090223 L81.2802683,71.8090223 C83.3155199,71.8090223 84.9807258,73.5145197 84.9807258,75.5990165 C84.9807258,77.6835133 83.3155199,79.3890106 81.2802683,79.3890106 L7.70512207,79.3890106 C5.6119661,79.3890106 3.91512792,77.6921725 3.91512792,75.5990165 C3.91512792,73.5058605 5.6119661,71.8090223 7.70512207,71.8090223 Z" id="Path" fill="#FFFFFF"></path>
                </g>
            </g>
            <g id="Group-7" transform="translate(209.542857, 68.928571)">
                <path d="M13.2387134,28.4232157 L17.1867132,28.4232157 C17.1867132,21.909016 22.5165129,16.5792163 29.0307126,16.5792163 L29.0307126,12.6312164 C22.5165129,12.6312164 17.1867132,7.3014167 17.1867132,0.787217018 C17.1867132,0.787217018 15.8707133,0.787217018 13.2387134,0.787217018 C13.2387134,7.3014167 7.90891364,12.6312164 1.39471395,12.6312164 C0.627047322,12.6312164 0.243214007,13.2892164 0.243214007,14.6052163 C0.243214007,15.9212163 0.627047322,16.5792163 1.39471395,16.5792163 C7.90891364,16.5792163 13.2387134,21.909016 13.2387134,28.4232157 Z" id="Shape" fill="#030303" fill-rule="nonzero"></path>
                <path d="M15.2127133,8.48581665 C16.5945132,11.0520165 18.7659131,13.2234164 21.332113,14.6052163 C18.7659131,15.9870163 16.5945132,18.1584162 15.2127133,20.7246161 C13.8309133,18.1584162 11.6595135,15.9870163 9.09331358,14.6052163 C11.6595135,13.2234164 13.8309133,11.0520165 15.2127133,8.48581665 Z" id="Path" fill="#FFC07D"></path>
            </g>
            <g id="Group-8" transform="translate(164.050000, 103.392857)">
                <path d="M13.7897115,28.0175003 L17.7377113,28.0175003 C17.7377113,21.5033006 23.067511,16.1735009 29.5817107,16.1735009 L29.5817107,12.225501 C23.067511,12.225501 17.7377113,6.8957013 17.7377113,0.381501617 C17.7377113,0.381501617 16.4217114,0.381501617 13.7897115,0.381501617 C13.7897115,6.8957013 8.45991174,12.225501 1.94571206,12.225501 C1.17804543,12.225501 0.794212111,12.883501 0.794212111,14.1995009 C0.794212111,15.5155009 1.17804543,16.1735009 1.94571206,16.1735009 C8.45991174,16.1735009 13.7897115,21.5033006 13.7897115,28.0175003 Z" id="Shape" fill="#030303" fill-rule="nonzero"></path>
                <path d="M15.7637114,8.08010124 C17.1455113,10.6463011 19.3169112,12.817701 21.8831111,14.1995009 C19.3169112,15.5813009 17.1455113,17.7527008 15.7637114,20.3189007 C14.3819115,17.7527008 12.2105116,15.5813009 9.64431168,14.1995009 C12.2105116,12.817701 14.3819115,10.6463011 15.7637114,8.08010124 Z" id="Path" fill="#FFC07D"></path>
            </g>
        </g>
    </g>
</svg>